M48
METRIC,LZ,000.000
;FILE_FORMAT=3:3
;TYPE=PLATED
;Layer: PTH_Through
;EasyEDA v6.5.42, 2024-04-22 14:16:48
;bdecda6f3f7540baa8991d5417232957,c115876feeed43bc8c79c948ea027e3a,10
;Gerber Generator version 0.2
;Holesize 1 = 0.901 mm
T01C0.901
;Holesize 2 = 1.200 mm
T02C1.200
;Holesize 3 = 1.301 mm
T03C1.301
;Holesize 4 = 3.000 mm
T04C3.000
%
G05
G90
T01
X032940Y-020955
X030440Y-020955
X027940Y-020955
T02
X035010Y-033094
X032470Y-033094
X029930Y-033094
X027390Y-033094
X024850Y-033094
X022310Y-033094
X019770Y-033094
X017230Y-033094
X014690Y-033094
X012150Y-033094
X009610Y-033094
X007070Y-033094
X004530Y-033094
X001990Y-033094
X035010Y-028094
X032470Y-028094
X029930Y-028094
X027390Y-028094
X024850Y-028094
X022310Y-028094
X019770Y-028094
X017230Y-028094
X014690Y-028094
X012150Y-028094
X009610Y-028094
X007070Y-028094
X004530Y-028094
X001990Y-028094
X016510Y-013195
X013970Y-013195
X011430Y-013195
X008890Y-013195
X006350Y-013195
X003810Y-013195
X016510Y-023495
X003810Y-023495
X006350Y-023495
X008890Y-023495
X011430Y-023495
X013970Y-023495
T03
X026690Y-044315
X030090Y-044315
X027315Y-042365
X029465Y-042365
X007190Y-044315
X010590Y-044315
X007815Y-042365
X009965Y-042365
X016940Y-061202
X020340Y-061202
X017565Y-059252
X019715Y-059252
T04
X034640Y-043815
X022140Y-043815
X015140Y-043815
X002640Y-043815
X024890Y-060702
X012390Y-060702
M30
