G04 Layer: TopSolderMaskLayer*
G04 EasyEDA v6.5.42, 2024-04-22 14:16:48*
G04 bdecda6f3f7540baa8991d5417232957,c115876feeed43bc8c79c948ea027e3a,10*
G04 Gerber Generator version 0.2*
G04 Scale: 100 percent, Rotated: No, Reflected: No *
G04 Dimensions in millimeters *
G04 leading zeros omitted , absolute positions ,4 integer and 5 decimal *
%FSLAX45Y45*%
%MOMM*%

%ADD10C,4.1176*%
%ADD11C,1.9016*%
%ADD12C,2.0016*%
%ADD13C,1.8516*%

%LPD*%
D10*
G01*
X3464001Y-4381500D03*
G01*
X2214016Y-4381500D03*
D11*
G01*
X2669006Y-4431512D03*
G01*
X3009011Y-4431512D03*
G01*
X2731515Y-4236491D03*
G01*
X2946501Y-4236491D03*
D10*
G01*
X1513992Y-4381500D03*
G01*
X264007Y-4381500D03*
D11*
G01*
X718997Y-4431512D03*
G01*
X1059002Y-4431512D03*
G01*
X781507Y-4236491D03*
G01*
X996492Y-4236491D03*
D10*
G01*
X2488996Y-6070193D03*
G01*
X1239011Y-6070193D03*
D11*
G01*
X1694002Y-6120206D03*
G01*
X2034006Y-6120206D03*
G01*
X1756511Y-5925185D03*
G01*
X1971497Y-5925185D03*
D12*
G01*
X3293999Y-2095500D03*
G01*
X3044012Y-2095500D03*
G01*
X2794000Y-2095500D03*
D13*
G01*
X3500983Y-3309391D03*
G01*
X3246983Y-3309391D03*
G01*
X2992983Y-3309391D03*
G01*
X2738983Y-3309391D03*
G01*
X2484983Y-3309391D03*
G01*
X2231009Y-3309391D03*
G01*
X1977009Y-3309391D03*
G01*
X1723009Y-3309391D03*
G01*
X1469009Y-3309391D03*
G01*
X1215009Y-3309391D03*
G01*
X961009Y-3309391D03*
G01*
X707009Y-3309391D03*
G01*
X453009Y-3309391D03*
G01*
X199009Y-3309391D03*
G01*
X3500983Y-2809392D03*
G01*
X3246983Y-2809392D03*
G01*
X2992983Y-2809392D03*
G01*
X2738983Y-2809392D03*
G01*
X2484983Y-2809392D03*
G01*
X2231009Y-2809392D03*
G01*
X1977009Y-2809392D03*
G01*
X1723009Y-2809392D03*
G01*
X1469009Y-2809392D03*
G01*
X1215009Y-2809392D03*
G01*
X961009Y-2809392D03*
G01*
X707009Y-2809392D03*
G01*
X453009Y-2809392D03*
G01*
X199009Y-2809392D03*
G01*
X1651000Y-1319479D03*
G01*
X1397000Y-1319479D03*
G01*
X1143000Y-1319479D03*
G01*
X889000Y-1319479D03*
G01*
X635000Y-1319479D03*
G01*
X381000Y-1319479D03*
G01*
X1651000Y-2349500D03*
G01*
X381000Y-2349500D03*
G01*
X635000Y-2349500D03*
G01*
X889000Y-2349500D03*
G01*
X1143000Y-2349500D03*
G01*
X1397000Y-2349500D03*
M02*
