G04 Layer: TopSilkscreenLayer*
G04 EasyEDA v6.5.42, 2024-04-22 14:16:48*
G04 bdecda6f3f7540baa8991d5417232957,c115876feeed43bc8c79c948ea027e3a,10*
G04 Gerber Generator version 0.2*
G04 Scale: 100 percent, Rotated: No, Reflected: No *
G04 Dimensions in millimeters *
G04 leading zeros omitted , absolute positions ,4 integer and 5 decimal *
%FSLAX45Y45*%
%MOMM*%

%ADD10C,0.2032*%
%ADD11C,0.1999*%
%ADD12C,0.1270*%
%ADD13C,0.2540*%

%LPD*%
D10*
X3281301Y-1658112D02*
G01*
X3281301Y-1721865D01*
X3281301Y-1676400D02*
G01*
X3295017Y-1662684D01*
X3303907Y-1658112D01*
X3317623Y-1658112D01*
X3326767Y-1662684D01*
X3331339Y-1676400D01*
X3331339Y-1721865D01*
X3415921Y-1671828D02*
G01*
X3406777Y-1662684D01*
X3397633Y-1658112D01*
X3383917Y-1658112D01*
X3375027Y-1662684D01*
X3365883Y-1671828D01*
X3361311Y-1685289D01*
X3361311Y-1694434D01*
X3365883Y-1708150D01*
X3375027Y-1717294D01*
X3383917Y-1721865D01*
X3397633Y-1721865D01*
X3406777Y-1717294D01*
X3415921Y-1708150D01*
X2659001Y-1693418D02*
G01*
X2740789Y-1693418D01*
X3042795Y-1652523D02*
G01*
X3042795Y-1734565D01*
X3001901Y-1693418D02*
G01*
X3083689Y-1693418D01*
X2013965Y-4864862D02*
G01*
X1968500Y-4928362D01*
X2036572Y-4928362D01*
X2013965Y-4864862D02*
G01*
X2013965Y-4960365D01*
X1888743Y-4725162D02*
G01*
X1938781Y-4725162D01*
X1911350Y-4761484D01*
X1925065Y-4761484D01*
X1934209Y-4766055D01*
X1938781Y-4770628D01*
X1943354Y-4784089D01*
X1943354Y-4793234D01*
X1938781Y-4806950D01*
X1929638Y-4816094D01*
X1915922Y-4820665D01*
X1902206Y-4820665D01*
X1888743Y-4816094D01*
X1884172Y-4811521D01*
X1879600Y-4802378D01*
X1731772Y-4747768D02*
G01*
X1731772Y-4743195D01*
X1736343Y-4734305D01*
X1740915Y-4729734D01*
X1749806Y-4725162D01*
X1768093Y-4725162D01*
X1777238Y-4729734D01*
X1781809Y-4734305D01*
X1786381Y-4743195D01*
X1786381Y-4752339D01*
X1781809Y-4761484D01*
X1772665Y-4775200D01*
X1727200Y-4820665D01*
X1790954Y-4820665D01*
X1651000Y-4895595D02*
G01*
X1660143Y-4891023D01*
X1673606Y-4877562D01*
X1673606Y-4973065D01*
X1172463Y-115315D02*
G01*
X1163320Y-119887D01*
X1154175Y-129031D01*
X1149604Y-142747D01*
X1149604Y-151892D01*
X1154175Y-165354D01*
X1163320Y-174497D01*
X1172463Y-179070D01*
X1186179Y-179070D01*
X1195070Y-174497D01*
X1204213Y-165354D01*
X1208786Y-151892D01*
X1208786Y-142747D01*
X1204213Y-129031D01*
X1195070Y-119887D01*
X1186179Y-115315D01*
X1172463Y-115315D01*
X1238758Y-115315D02*
G01*
X1238758Y-210820D01*
X1238758Y-129031D02*
G01*
X1247902Y-119887D01*
X1257045Y-115315D01*
X1270508Y-115315D01*
X1279652Y-119887D01*
X1288795Y-129031D01*
X1293368Y-142747D01*
X1293368Y-151892D01*
X1288795Y-165354D01*
X1279652Y-174497D01*
X1270508Y-179070D01*
X1257045Y-179070D01*
X1247902Y-174497D01*
X1238758Y-165354D01*
X1337056Y-83565D02*
G01*
X1337056Y-160781D01*
X1341627Y-174497D01*
X1350518Y-179070D01*
X1359661Y-179070D01*
X1323340Y-115315D02*
G01*
X1355090Y-115315D01*
X1412493Y-115315D02*
G01*
X1403350Y-119887D01*
X1394206Y-129031D01*
X1389634Y-142747D01*
X1389634Y-151892D01*
X1394206Y-165354D01*
X1403350Y-174497D01*
X1412493Y-179070D01*
X1425956Y-179070D01*
X1435100Y-174497D01*
X1444243Y-165354D01*
X1448815Y-151892D01*
X1448815Y-142747D01*
X1444243Y-129031D01*
X1435100Y-119887D01*
X1425956Y-115315D01*
X1412493Y-115315D01*
X1478788Y-115315D02*
G01*
X1478788Y-210820D01*
X1478788Y-129031D02*
G01*
X1487931Y-119887D01*
X1497075Y-115315D01*
X1510538Y-115315D01*
X1519681Y-119887D01*
X1528825Y-129031D01*
X1533397Y-142747D01*
X1533397Y-151892D01*
X1528825Y-165354D01*
X1519681Y-174497D01*
X1510538Y-179070D01*
X1497075Y-179070D01*
X1487931Y-174497D01*
X1478788Y-165354D01*
X1563370Y-83565D02*
G01*
X1563370Y-179070D01*
X1563370Y-133604D02*
G01*
X1577086Y-119887D01*
X1585975Y-115315D01*
X1599691Y-115315D01*
X1608836Y-119887D01*
X1613408Y-133604D01*
X1613408Y-179070D01*
X1647952Y-115315D02*
G01*
X1675129Y-179070D01*
X1702308Y-115315D02*
G01*
X1675129Y-179070D01*
X1665986Y-197357D01*
X1657095Y-206247D01*
X1647952Y-210820D01*
X1643379Y-210820D01*
X1782318Y-129031D02*
G01*
X1778000Y-119887D01*
X1764284Y-115315D01*
X1750568Y-115315D01*
X1736852Y-119887D01*
X1732534Y-129031D01*
X1736852Y-138176D01*
X1745995Y-142747D01*
X1768856Y-147320D01*
X1778000Y-151892D01*
X1782318Y-160781D01*
X1782318Y-165354D01*
X1778000Y-174497D01*
X1764284Y-179070D01*
X1750568Y-179070D01*
X1736852Y-174497D01*
X1732534Y-165354D01*
X1937004Y-129031D02*
G01*
X1927859Y-119887D01*
X1918715Y-115315D01*
X1905254Y-115315D01*
X1896109Y-119887D01*
X1886965Y-129031D01*
X1882393Y-142747D01*
X1882393Y-151892D01*
X1886965Y-165354D01*
X1896109Y-174497D01*
X1905254Y-179070D01*
X1918715Y-179070D01*
X1927859Y-174497D01*
X1937004Y-165354D01*
X1989581Y-115315D02*
G01*
X1980691Y-119887D01*
X1971547Y-129031D01*
X1966975Y-142747D01*
X1966975Y-151892D01*
X1971547Y-165354D01*
X1980691Y-174497D01*
X1989581Y-179070D01*
X2003297Y-179070D01*
X2012441Y-174497D01*
X2021586Y-165354D01*
X2026158Y-151892D01*
X2026158Y-142747D01*
X2021586Y-129031D01*
X2012441Y-119887D01*
X2003297Y-115315D01*
X1989581Y-115315D01*
X2056129Y-115315D02*
G01*
X2056129Y-179070D01*
X2056129Y-133604D02*
G01*
X2069591Y-119887D01*
X2078736Y-115315D01*
X2092452Y-115315D01*
X2101595Y-119887D01*
X2106168Y-133604D01*
X2106168Y-179070D01*
X2106168Y-133604D02*
G01*
X2119629Y-119887D01*
X2128774Y-115315D01*
X2142490Y-115315D01*
X2151634Y-119887D01*
X2155952Y-133604D01*
X2155952Y-179070D01*
X2186177Y-115315D02*
G01*
X2186177Y-179070D01*
X2186177Y-133604D02*
G01*
X2199640Y-119887D01*
X2208784Y-115315D01*
X2222500Y-115315D01*
X2231643Y-119887D01*
X2235961Y-133604D01*
X2235961Y-179070D01*
X2235961Y-133604D02*
G01*
X2249677Y-119887D01*
X2258822Y-115315D01*
X2272538Y-115315D01*
X2281427Y-119887D01*
X2286000Y-133604D01*
X2286000Y-179070D01*
X2320543Y-156210D02*
G01*
X2315972Y-160781D01*
X2320543Y-165354D01*
X2325115Y-160781D01*
X2320543Y-156210D01*
X2425191Y-115315D02*
G01*
X2452370Y-179070D01*
X2479802Y-115315D02*
G01*
X2452370Y-179070D01*
X2536952Y-83565D02*
G01*
X2523236Y-88137D01*
X2514345Y-101854D01*
X2509774Y-124460D01*
X2509774Y-138176D01*
X2514345Y-160781D01*
X2523236Y-174497D01*
X2536952Y-179070D01*
X2546095Y-179070D01*
X2559811Y-174497D01*
X2568702Y-160781D01*
X2573274Y-138176D01*
X2573274Y-124460D01*
X2568702Y-101854D01*
X2559811Y-88137D01*
X2546095Y-83565D01*
X2536952Y-83565D01*
X2607818Y-156210D02*
G01*
X2603245Y-160781D01*
X2607818Y-165354D01*
X2612390Y-160781D01*
X2607818Y-156210D01*
X2646934Y-106426D02*
G01*
X2646934Y-101854D01*
X2651506Y-92710D01*
X2656077Y-88137D01*
X2665222Y-83565D01*
X2683256Y-83565D01*
X2692400Y-88137D01*
X2696972Y-92710D01*
X2701543Y-101854D01*
X2701543Y-110744D01*
X2696972Y-119887D01*
X2687827Y-133604D01*
X2642361Y-179070D01*
X2706115Y-179070D01*
X1671574Y-266954D02*
G01*
X1662429Y-276097D01*
X1653286Y-289813D01*
X1644141Y-307847D01*
X1639824Y-330707D01*
X1639824Y-348742D01*
X1644141Y-371602D01*
X1653286Y-389636D01*
X1662429Y-403352D01*
X1671574Y-412495D01*
X1715261Y-285242D02*
G01*
X1715261Y-362457D01*
X1719579Y-376173D01*
X1728724Y-380745D01*
X1737868Y-380745D01*
X1701545Y-316992D02*
G01*
X1733295Y-316992D01*
X1790700Y-316992D02*
G01*
X1781556Y-321563D01*
X1772411Y-330707D01*
X1767840Y-344170D01*
X1767840Y-353313D01*
X1772411Y-367029D01*
X1781556Y-376173D01*
X1790700Y-380745D01*
X1804161Y-380745D01*
X1813306Y-376173D01*
X1822450Y-367029D01*
X1827022Y-353313D01*
X1827022Y-344170D01*
X1822450Y-330707D01*
X1813306Y-321563D01*
X1804161Y-316992D01*
X1790700Y-316992D01*
X1856993Y-316992D02*
G01*
X1856993Y-412495D01*
X1856993Y-330707D02*
G01*
X1866138Y-321563D01*
X1875281Y-316992D01*
X1888743Y-316992D01*
X1897888Y-321563D01*
X1907031Y-330707D01*
X1911604Y-344170D01*
X1911604Y-353313D01*
X1907031Y-367029D01*
X1897888Y-376173D01*
X1888743Y-380745D01*
X1875281Y-380745D01*
X1866138Y-376173D01*
X1856993Y-367029D01*
X2011425Y-316992D02*
G01*
X2011425Y-412495D01*
X2011425Y-330707D02*
G01*
X2020570Y-321563D01*
X2029713Y-316992D01*
X2043429Y-316992D01*
X2052320Y-321563D01*
X2061463Y-330707D01*
X2066036Y-344170D01*
X2066036Y-353313D01*
X2061463Y-367029D01*
X2052320Y-376173D01*
X2043429Y-380745D01*
X2029713Y-380745D01*
X2020570Y-376173D01*
X2011425Y-367029D01*
X2150618Y-330707D02*
G01*
X2141474Y-321563D01*
X2132329Y-316992D01*
X2118868Y-316992D01*
X2109724Y-321563D01*
X2100579Y-330707D01*
X2096008Y-344170D01*
X2096008Y-353313D01*
X2100579Y-367029D01*
X2109724Y-376173D01*
X2118868Y-380745D01*
X2132329Y-380745D01*
X2141474Y-376173D01*
X2150618Y-367029D01*
X2180590Y-285242D02*
G01*
X2180590Y-380745D01*
X2180590Y-330707D02*
G01*
X2189734Y-321563D01*
X2198877Y-316992D01*
X2212340Y-316992D01*
X2221484Y-321563D01*
X2230627Y-330707D01*
X2235200Y-344170D01*
X2235200Y-353313D01*
X2230627Y-367029D01*
X2221484Y-376173D01*
X2212340Y-380745D01*
X2198877Y-380745D01*
X2189734Y-376173D01*
X2180590Y-367029D01*
X2265172Y-266954D02*
G01*
X2274315Y-276097D01*
X2283459Y-289813D01*
X2292350Y-307847D01*
X2296922Y-330707D01*
X2296922Y-348742D01*
X2292350Y-371602D01*
X2283459Y-389636D01*
X2274315Y-403352D01*
X2265172Y-412495D01*
X2831467Y-1461262D02*
G01*
X2831467Y-1533905D01*
X2826895Y-1547621D01*
X2822323Y-1552194D01*
X2813179Y-1556765D01*
X2804289Y-1556765D01*
X2795145Y-1552194D01*
X2790573Y-1547621D01*
X2786001Y-1533905D01*
X2786001Y-1524762D01*
X2925193Y-1474723D02*
G01*
X2916049Y-1465834D01*
X2902333Y-1461262D01*
X2884299Y-1461262D01*
X2870583Y-1465834D01*
X2861439Y-1474723D01*
X2861439Y-1483868D01*
X2866011Y-1493012D01*
X2870583Y-1497584D01*
X2879727Y-1502155D01*
X2906905Y-1511300D01*
X2916049Y-1515618D01*
X2920621Y-1520189D01*
X2925193Y-1529334D01*
X2925193Y-1543050D01*
X2916049Y-1552194D01*
X2902333Y-1556765D01*
X2884299Y-1556765D01*
X2870583Y-1552194D01*
X2861439Y-1543050D01*
X2986915Y-1461262D02*
G01*
X2986915Y-1556765D01*
X2955165Y-1461262D02*
G01*
X3018665Y-1461262D01*
X3186813Y-1483868D02*
G01*
X3182241Y-1474723D01*
X3173351Y-1465834D01*
X3164207Y-1461262D01*
X3145919Y-1461262D01*
X3137029Y-1465834D01*
X3127885Y-1474723D01*
X3123313Y-1483868D01*
X3118741Y-1497584D01*
X3118741Y-1520189D01*
X3123313Y-1533905D01*
X3127885Y-1543050D01*
X3137029Y-1552194D01*
X3145919Y-1556765D01*
X3164207Y-1556765D01*
X3173351Y-1552194D01*
X3182241Y-1543050D01*
X3186813Y-1533905D01*
X3239645Y-1493012D02*
G01*
X3230501Y-1497584D01*
X3221357Y-1506728D01*
X3216785Y-1520189D01*
X3216785Y-1529334D01*
X3221357Y-1543050D01*
X3230501Y-1552194D01*
X3239645Y-1556765D01*
X3253361Y-1556765D01*
X3262251Y-1552194D01*
X3271395Y-1543050D01*
X3275967Y-1529334D01*
X3275967Y-1520189D01*
X3271395Y-1506728D01*
X3262251Y-1497584D01*
X3253361Y-1493012D01*
X3239645Y-1493012D01*
X3305939Y-1461262D02*
G01*
X3305939Y-1556765D01*
X3335911Y-1461262D02*
G01*
X3335911Y-1556765D01*
X3370455Y-1533905D02*
G01*
X3365883Y-1538478D01*
X3370455Y-1543050D01*
X3375027Y-1538478D01*
X3370455Y-1533905D01*
X3060700Y-5259070D02*
G01*
X3060700Y-5450078D01*
X3060700Y-5450078D02*
G01*
X3169665Y-5450078D01*
X3229863Y-5259070D02*
G01*
X3229863Y-5450078D01*
X3229863Y-5259070D02*
G01*
X3347974Y-5259070D01*
X3229863Y-5350002D02*
G01*
X3302508Y-5350002D01*
X3229863Y-5450078D02*
G01*
X3347974Y-5450078D01*
X3407918Y-5259070D02*
G01*
X3407918Y-5450078D01*
X3407918Y-5259070D02*
G01*
X3471672Y-5259070D01*
X3498850Y-5268213D01*
X3517138Y-5286502D01*
X3526027Y-5304536D01*
X3535172Y-5331968D01*
X3535172Y-5377434D01*
X3526027Y-5404612D01*
X3517138Y-5422900D01*
X3498850Y-5440934D01*
X3471672Y-5450078D01*
X3407918Y-5450078D01*
X3595370Y-5295645D02*
G01*
X3613404Y-5286502D01*
X3640581Y-5259070D01*
X3640581Y-5450078D01*
X76200Y-5246370D02*
G01*
X76200Y-5437378D01*
X76200Y-5437378D02*
G01*
X185165Y-5437378D01*
X245363Y-5246370D02*
G01*
X245363Y-5437378D01*
X245363Y-5246370D02*
G01*
X363473Y-5246370D01*
X245363Y-5337302D02*
G01*
X318007Y-5337302D01*
X245363Y-5437378D02*
G01*
X363473Y-5437378D01*
X423418Y-5246370D02*
G01*
X423418Y-5437378D01*
X423418Y-5246370D02*
G01*
X487171Y-5246370D01*
X514350Y-5255513D01*
X532637Y-5273802D01*
X541528Y-5291836D01*
X550671Y-5319268D01*
X550671Y-5364734D01*
X541528Y-5391912D01*
X532637Y-5410200D01*
X514350Y-5428234D01*
X487171Y-5437378D01*
X423418Y-5437378D01*
X619760Y-5291836D02*
G01*
X619760Y-5282945D01*
X628904Y-5264657D01*
X638047Y-5255513D01*
X656081Y-5246370D01*
X692658Y-5246370D01*
X710691Y-5255513D01*
X719836Y-5264657D01*
X728979Y-5282945D01*
X728979Y-5300979D01*
X719836Y-5319268D01*
X701547Y-5346445D01*
X610870Y-5437378D01*
X738124Y-5437378D01*
X1155700Y-7024370D02*
G01*
X1155700Y-7215378D01*
X1155700Y-7215378D02*
G01*
X1264665Y-7215378D01*
X1324863Y-7024370D02*
G01*
X1324863Y-7215378D01*
X1324863Y-7024370D02*
G01*
X1442974Y-7024370D01*
X1324863Y-7115302D02*
G01*
X1397508Y-7115302D01*
X1324863Y-7215378D02*
G01*
X1442974Y-7215378D01*
X1502918Y-7024370D02*
G01*
X1502918Y-7215378D01*
X1502918Y-7024370D02*
G01*
X1566672Y-7024370D01*
X1593850Y-7033513D01*
X1612138Y-7051802D01*
X1621027Y-7069836D01*
X1630172Y-7097268D01*
X1630172Y-7142734D01*
X1621027Y-7169912D01*
X1612138Y-7188200D01*
X1593850Y-7206234D01*
X1566672Y-7215378D01*
X1502918Y-7215378D01*
X1708404Y-7024370D02*
G01*
X1808479Y-7024370D01*
X1753870Y-7097268D01*
X1781047Y-7097268D01*
X1799336Y-7106412D01*
X1808479Y-7115302D01*
X1817624Y-7142734D01*
X1817624Y-7160768D01*
X1808479Y-7188200D01*
X1790191Y-7206234D01*
X1763013Y-7215378D01*
X1735581Y-7215378D01*
X1708404Y-7206234D01*
X1699259Y-7197089D01*
X1690370Y-7179055D01*
X2041143Y-6988047D02*
G01*
X1877568Y-7279131D01*
X2101088Y-7024370D02*
G01*
X2101088Y-7215378D01*
X2101088Y-7024370D02*
G01*
X2173986Y-7215378D01*
X2246629Y-7024370D02*
G01*
X2173986Y-7215378D01*
X2246629Y-7024370D02*
G01*
X2246629Y-7215378D01*
X2306574Y-7024370D02*
G01*
X2315718Y-7033513D01*
X2324861Y-7024370D01*
X2315718Y-7015479D01*
X2306574Y-7024370D01*
X2315718Y-7088123D02*
G01*
X2315718Y-7215378D01*
X2484881Y-7115302D02*
G01*
X2475738Y-7097268D01*
X2448306Y-7088123D01*
X2421127Y-7088123D01*
X2393950Y-7097268D01*
X2384806Y-7115302D01*
X2393950Y-7133589D01*
X2411984Y-7142734D01*
X2457450Y-7151878D01*
X2475738Y-7160768D01*
X2484881Y-7179055D01*
X2484881Y-7188200D01*
X2475738Y-7206234D01*
X2448306Y-7215378D01*
X2421127Y-7215378D01*
X2393950Y-7206234D01*
X2384806Y-7188200D01*
X2653791Y-7115302D02*
G01*
X2635758Y-7097268D01*
X2617470Y-7088123D01*
X2590291Y-7088123D01*
X2572004Y-7097268D01*
X2553970Y-7115302D01*
X2544825Y-7142734D01*
X2544825Y-7160768D01*
X2553970Y-7188200D01*
X2572004Y-7206234D01*
X2590291Y-7215378D01*
X2617470Y-7215378D01*
X2635758Y-7206234D01*
X2653791Y-7188200D01*
X2348738Y-1320800D02*
G01*
X2253234Y-1320800D01*
X2348738Y-1320800D02*
G01*
X2348738Y-1361694D01*
X2344165Y-1375410D01*
X2339593Y-1379981D01*
X2330704Y-1384554D01*
X2316988Y-1384554D01*
X2307843Y-1379981D01*
X2303272Y-1375410D01*
X2298700Y-1361694D01*
X2298700Y-1320800D01*
X2348738Y-1478026D02*
G01*
X2253234Y-1414526D01*
X2348738Y-1414526D02*
G01*
X2348738Y-1478026D01*
X2253234Y-1414526D02*
G01*
X2253234Y-1478026D01*
X2348738Y-1507997D02*
G01*
X2253234Y-1507997D01*
X2348738Y-1507997D02*
G01*
X2253234Y-1571752D01*
X2348738Y-1571752D02*
G01*
X2253234Y-1571752D01*
X2367025Y-1703578D02*
G01*
X2357881Y-1694434D01*
X2344165Y-1685289D01*
X2326131Y-1676145D01*
X2303272Y-1671828D01*
X2285238Y-1671828D01*
X2262377Y-1676145D01*
X2244343Y-1685289D01*
X2230627Y-1694434D01*
X2221484Y-1703578D01*
X2348738Y-1733550D02*
G01*
X2253234Y-1733550D01*
X2348738Y-1733550D02*
G01*
X2348738Y-1792731D01*
X2303272Y-1733550D02*
G01*
X2303272Y-1769871D01*
X2253234Y-1733550D02*
G01*
X2253234Y-1792731D01*
X2316988Y-1822704D02*
G01*
X2221484Y-1822704D01*
X2303272Y-1822704D02*
G01*
X2312415Y-1831594D01*
X2316988Y-1840737D01*
X2316988Y-1854454D01*
X2312415Y-1863597D01*
X2303272Y-1872742D01*
X2289809Y-1877060D01*
X2280665Y-1877060D01*
X2266950Y-1872742D01*
X2257806Y-1863597D01*
X2253234Y-1854454D01*
X2253234Y-1840737D01*
X2257806Y-1831594D01*
X2266950Y-1822704D01*
X2348738Y-1907286D02*
G01*
X2253234Y-1907286D01*
X2298700Y-1907286D02*
G01*
X2312415Y-1920747D01*
X2316988Y-1929892D01*
X2316988Y-1943607D01*
X2312415Y-1952497D01*
X2298700Y-1957070D01*
X2253234Y-1957070D01*
X2316988Y-1991613D02*
G01*
X2253234Y-2019045D01*
X2316988Y-2046223D02*
G01*
X2253234Y-2019045D01*
X2235200Y-2009902D01*
X2226056Y-2000757D01*
X2221484Y-1991613D01*
X2221484Y-1987042D01*
X2303272Y-2126234D02*
G01*
X2312415Y-2121662D01*
X2316988Y-2107945D01*
X2316988Y-2094484D01*
X2312415Y-2080768D01*
X2303272Y-2076195D01*
X2294381Y-2080768D01*
X2289809Y-2089912D01*
X2285238Y-2112518D01*
X2280665Y-2121662D01*
X2271522Y-2126234D01*
X2266950Y-2126234D01*
X2257806Y-2121662D01*
X2253234Y-2107945D01*
X2253234Y-2094484D01*
X2257806Y-2080768D01*
X2266950Y-2076195D01*
X2367025Y-2156205D02*
G01*
X2357881Y-2165350D01*
X2344165Y-2174494D01*
X2326131Y-2183637D01*
X2303272Y-2187955D01*
X2285238Y-2187955D01*
X2262377Y-2183637D01*
X2244343Y-2174494D01*
X2230627Y-2165350D01*
X2221484Y-2156205D01*
X1841500Y-1288795D02*
G01*
X1850643Y-1284223D01*
X1864106Y-1270762D01*
X1864106Y-1366265D01*
X1894331Y-1325118D02*
G01*
X1976120Y-1325118D01*
X2060702Y-1284223D02*
G01*
X2056129Y-1275334D01*
X2042413Y-1270762D01*
X2033270Y-1270762D01*
X2019808Y-1275334D01*
X2010663Y-1288795D01*
X2006091Y-1311655D01*
X2006091Y-1334262D01*
X2010663Y-1352550D01*
X2019808Y-1361694D01*
X2033270Y-1366265D01*
X2037841Y-1366265D01*
X2051558Y-1361694D01*
X2060702Y-1352550D01*
X2065020Y-1338834D01*
X2065020Y-1334262D01*
X2060702Y-1320800D01*
X2051558Y-1311655D01*
X2037841Y-1307084D01*
X2033270Y-1307084D01*
X2019808Y-1311655D01*
X2010663Y-1320800D01*
X2006091Y-1334262D01*
X1905254Y-2299462D02*
G01*
X1859788Y-2394965D01*
X1841500Y-2299462D02*
G01*
X1905254Y-2299462D01*
X1935225Y-2353818D02*
G01*
X2017013Y-2353818D01*
X2046986Y-2317495D02*
G01*
X2056129Y-2312923D01*
X2069591Y-2299462D01*
X2069591Y-2394965D01*
X2104136Y-2322068D02*
G01*
X2104136Y-2317495D01*
X2108708Y-2308605D01*
X2113279Y-2304034D01*
X2122424Y-2299462D01*
X2140711Y-2299462D01*
X2149602Y-2304034D01*
X2154174Y-2308605D01*
X2158745Y-2317495D01*
X2158745Y-2326639D01*
X2154174Y-2335784D01*
X2145029Y-2349500D01*
X2099563Y-2394965D01*
X2163318Y-2394965D01*
X355600Y-1504695D02*
G01*
X364744Y-1500123D01*
X378205Y-1486662D01*
X378205Y-1582165D01*
X601471Y-1509268D02*
G01*
X601471Y-1504695D01*
X606044Y-1495805D01*
X610615Y-1491234D01*
X619505Y-1486662D01*
X637794Y-1486662D01*
X646937Y-1491234D01*
X651510Y-1495805D01*
X656081Y-1504695D01*
X656081Y-1513839D01*
X651510Y-1522984D01*
X642365Y-1536700D01*
X596900Y-1582165D01*
X660654Y-1582165D01*
X860043Y-1486662D02*
G01*
X910081Y-1486662D01*
X882650Y-1522984D01*
X896365Y-1522984D01*
X905509Y-1527555D01*
X910081Y-1532128D01*
X914654Y-1545589D01*
X914654Y-1554734D01*
X910081Y-1568450D01*
X900938Y-1577594D01*
X887222Y-1582165D01*
X873506Y-1582165D01*
X860043Y-1577594D01*
X855472Y-1573021D01*
X850900Y-1563878D01*
X1150365Y-1486662D02*
G01*
X1104900Y-1550162D01*
X1172972Y-1550162D01*
X1150365Y-1486662D02*
G01*
X1150365Y-1582165D01*
X1426159Y-1486712D02*
G01*
X1380693Y-1486712D01*
X1376121Y-1527606D01*
X1380693Y-1523034D01*
X1394409Y-1518462D01*
X1407871Y-1518462D01*
X1421587Y-1523034D01*
X1430731Y-1531924D01*
X1435303Y-1545640D01*
X1435303Y-1554784D01*
X1430731Y-1568500D01*
X1421587Y-1577390D01*
X1407871Y-1581962D01*
X1394409Y-1581962D01*
X1380693Y-1577390D01*
X1376121Y-1573072D01*
X1371549Y-1563928D01*
X1680159Y-1500174D02*
G01*
X1675587Y-1491030D01*
X1661871Y-1486712D01*
X1652981Y-1486712D01*
X1639265Y-1491030D01*
X1630121Y-1504746D01*
X1625549Y-1527606D01*
X1625549Y-1550212D01*
X1630121Y-1568500D01*
X1639265Y-1577390D01*
X1652981Y-1581962D01*
X1657299Y-1581962D01*
X1671015Y-1577390D01*
X1680159Y-1568500D01*
X1684731Y-1554784D01*
X1684731Y-1550212D01*
X1680159Y-1536496D01*
X1671015Y-1527606D01*
X1657299Y-1523034D01*
X1652981Y-1523034D01*
X1639265Y-1527606D01*
X1630121Y-1536496D01*
X1625549Y-1550212D01*
X419354Y-2083562D02*
G01*
X373887Y-2179065D01*
X355600Y-2083562D02*
G01*
X419354Y-2083562D01*
X619505Y-2083562D02*
G01*
X606044Y-2088134D01*
X601471Y-2097023D01*
X601471Y-2106168D01*
X606044Y-2115312D01*
X615187Y-2119884D01*
X633221Y-2124455D01*
X646937Y-2129028D01*
X656081Y-2137918D01*
X660654Y-2147062D01*
X660654Y-2160778D01*
X656081Y-2169921D01*
X651510Y-2174494D01*
X637794Y-2179065D01*
X619505Y-2179065D01*
X606044Y-2174494D01*
X601471Y-2169921D01*
X596900Y-2160778D01*
X596900Y-2147062D01*
X601471Y-2137918D01*
X610615Y-2129028D01*
X624078Y-2124455D01*
X642365Y-2119884D01*
X651510Y-2115312D01*
X656081Y-2106168D01*
X656081Y-2097023D01*
X651510Y-2088134D01*
X637794Y-2083562D01*
X619505Y-2083562D01*
X910081Y-2115312D02*
G01*
X905509Y-2129028D01*
X896365Y-2137918D01*
X882650Y-2142489D01*
X878077Y-2142489D01*
X864615Y-2137918D01*
X855472Y-2129028D01*
X850900Y-2115312D01*
X850900Y-2110739D01*
X855472Y-2097023D01*
X864615Y-2088134D01*
X878077Y-2083562D01*
X882650Y-2083562D01*
X896365Y-2088134D01*
X905509Y-2097023D01*
X910081Y-2115312D01*
X910081Y-2137918D01*
X905509Y-2160778D01*
X896365Y-2174494D01*
X882650Y-2179065D01*
X873506Y-2179065D01*
X860043Y-2174494D01*
X855472Y-2165350D01*
X1079500Y-2101595D02*
G01*
X1088643Y-2097023D01*
X1102106Y-2083562D01*
X1102106Y-2179065D01*
X1159509Y-2083562D02*
G01*
X1145793Y-2088134D01*
X1136650Y-2101595D01*
X1132331Y-2124455D01*
X1132331Y-2137918D01*
X1136650Y-2160778D01*
X1145793Y-2174494D01*
X1159509Y-2179065D01*
X1168654Y-2179065D01*
X1182115Y-2174494D01*
X1191259Y-2160778D01*
X1195831Y-2137918D01*
X1195831Y-2124455D01*
X1191259Y-2101595D01*
X1182115Y-2088134D01*
X1168654Y-2083562D01*
X1159509Y-2083562D01*
X1346200Y-2101595D02*
G01*
X1355343Y-2097023D01*
X1368806Y-2083562D01*
X1368806Y-2179065D01*
X1399031Y-2101595D02*
G01*
X1407922Y-2097023D01*
X1421638Y-2083562D01*
X1421638Y-2179065D01*
X1600200Y-2101595D02*
G01*
X1609343Y-2097023D01*
X1622806Y-2083562D01*
X1622806Y-2179065D01*
X1657350Y-2106168D02*
G01*
X1657350Y-2101595D01*
X1661922Y-2092705D01*
X1666493Y-2088134D01*
X1675638Y-2083562D01*
X1693925Y-2083562D01*
X1702815Y-2088134D01*
X1707388Y-2092705D01*
X1711959Y-2101595D01*
X1711959Y-2110739D01*
X1707388Y-2119884D01*
X1698497Y-2133600D01*
X1653031Y-2179065D01*
X1716531Y-2179065D01*
X3533396Y-3011423D02*
G01*
X3533396Y-3093465D01*
X3492502Y-3052318D02*
G01*
X3574290Y-3052318D01*
X3225802Y-3052318D02*
G01*
X3307590Y-3052318D01*
X1727200Y-3028695D02*
G01*
X1736343Y-3024123D01*
X1749806Y-3010662D01*
X1749806Y-3106165D01*
X1973072Y-3033268D02*
G01*
X1973072Y-3028695D01*
X1977643Y-3019805D01*
X1982215Y-3015234D01*
X1991106Y-3010662D01*
X2009393Y-3010662D01*
X2018538Y-3015234D01*
X2023109Y-3019805D01*
X2027681Y-3028695D01*
X2027681Y-3037839D01*
X2023109Y-3046984D01*
X2013965Y-3060700D01*
X1968500Y-3106165D01*
X2032254Y-3106165D01*
X2231643Y-3010662D02*
G01*
X2281681Y-3010662D01*
X2254250Y-3046984D01*
X2267965Y-3046984D01*
X2277109Y-3051555D01*
X2281681Y-3056128D01*
X2286254Y-3069589D01*
X2286254Y-3078734D01*
X2281681Y-3092450D01*
X2272538Y-3101594D01*
X2258822Y-3106165D01*
X2245106Y-3106165D01*
X2231643Y-3101594D01*
X2227072Y-3097021D01*
X2222500Y-3087878D01*
X2521965Y-3010662D02*
G01*
X2476500Y-3074162D01*
X2544572Y-3074162D01*
X2521965Y-3010662D02*
G01*
X2521965Y-3106165D01*
X2797759Y-3010712D02*
G01*
X2752293Y-3010712D01*
X2747721Y-3051606D01*
X2752293Y-3047034D01*
X2766009Y-3042462D01*
X2779471Y-3042462D01*
X2793187Y-3047034D01*
X2802331Y-3055924D01*
X2806903Y-3069640D01*
X2806903Y-3078784D01*
X2802331Y-3092500D01*
X2793187Y-3101390D01*
X2779471Y-3105962D01*
X2766009Y-3105962D01*
X2752293Y-3101390D01*
X2747721Y-3097072D01*
X2743149Y-3087928D01*
X3051759Y-3024174D02*
G01*
X3047187Y-3015030D01*
X3033471Y-3010712D01*
X3024581Y-3010712D01*
X3010865Y-3015030D01*
X3001721Y-3028746D01*
X2997149Y-3051606D01*
X2997149Y-3074212D01*
X3001721Y-3092500D01*
X3010865Y-3101390D01*
X3024581Y-3105962D01*
X3028899Y-3105962D01*
X3042615Y-3101390D01*
X3051759Y-3092500D01*
X3056331Y-3078784D01*
X3056331Y-3074212D01*
X3051759Y-3060496D01*
X3042615Y-3051606D01*
X3028899Y-3047034D01*
X3024581Y-3047034D01*
X3010865Y-3051606D01*
X3001721Y-3060496D01*
X2997149Y-3074212D01*
X241554Y-3010662D02*
G01*
X196087Y-3106165D01*
X177800Y-3010662D02*
G01*
X241554Y-3010662D01*
X441705Y-3010662D02*
G01*
X428244Y-3015234D01*
X423671Y-3024123D01*
X423671Y-3033268D01*
X428244Y-3042412D01*
X437387Y-3046984D01*
X455421Y-3051555D01*
X469137Y-3056128D01*
X478281Y-3065018D01*
X482854Y-3074162D01*
X482854Y-3087878D01*
X478281Y-3097021D01*
X473710Y-3101594D01*
X459994Y-3106165D01*
X441705Y-3106165D01*
X428244Y-3101594D01*
X423671Y-3097021D01*
X419100Y-3087878D01*
X419100Y-3074162D01*
X423671Y-3065018D01*
X432815Y-3056128D01*
X446278Y-3051555D01*
X464565Y-3046984D01*
X473710Y-3042412D01*
X478281Y-3033268D01*
X478281Y-3024123D01*
X473710Y-3015234D01*
X459994Y-3010662D01*
X441705Y-3010662D01*
X732281Y-3042412D02*
G01*
X727709Y-3056128D01*
X718565Y-3065018D01*
X704850Y-3069589D01*
X700277Y-3069589D01*
X686815Y-3065018D01*
X677672Y-3056128D01*
X673100Y-3042412D01*
X673100Y-3037839D01*
X677672Y-3024123D01*
X686815Y-3015234D01*
X700277Y-3010662D01*
X704850Y-3010662D01*
X718565Y-3015234D01*
X727709Y-3024123D01*
X732281Y-3042412D01*
X732281Y-3065018D01*
X727709Y-3087878D01*
X718565Y-3101594D01*
X704850Y-3106165D01*
X695706Y-3106165D01*
X682243Y-3101594D01*
X677672Y-3092450D01*
X901700Y-3028695D02*
G01*
X910843Y-3024123D01*
X924306Y-3010662D01*
X924306Y-3106165D01*
X981709Y-3010662D02*
G01*
X967993Y-3015234D01*
X958850Y-3028695D01*
X954531Y-3051555D01*
X954531Y-3065018D01*
X958850Y-3087878D01*
X967993Y-3101594D01*
X981709Y-3106165D01*
X990854Y-3106165D01*
X1004315Y-3101594D01*
X1013459Y-3087878D01*
X1018031Y-3065018D01*
X1018031Y-3051555D01*
X1013459Y-3028695D01*
X1004315Y-3015234D01*
X990854Y-3010662D01*
X981709Y-3010662D01*
X1168400Y-3028695D02*
G01*
X1177543Y-3024123D01*
X1191006Y-3010662D01*
X1191006Y-3106165D01*
X1221231Y-3028695D02*
G01*
X1230122Y-3024123D01*
X1243838Y-3010662D01*
X1243838Y-3106165D01*
X1422400Y-3028695D02*
G01*
X1431543Y-3024123D01*
X1445006Y-3010662D01*
X1445006Y-3106165D01*
X1479550Y-3033268D02*
G01*
X1479550Y-3028695D01*
X1484122Y-3019805D01*
X1488693Y-3015234D01*
X1497838Y-3010662D01*
X1516125Y-3010662D01*
X1525015Y-3015234D01*
X1529588Y-3019805D01*
X1534159Y-3028695D01*
X1534159Y-3037839D01*
X1529588Y-3046984D01*
X1520697Y-3060700D01*
X1475231Y-3106165D01*
X1538731Y-3106165D01*
X2019300Y-2578862D02*
G01*
X2019300Y-2674365D01*
X2019300Y-2578862D02*
G01*
X2060193Y-2578862D01*
X2073909Y-2583434D01*
X2078481Y-2588005D01*
X2083054Y-2596895D01*
X2083054Y-2610612D01*
X2078481Y-2619755D01*
X2073909Y-2624328D01*
X2060193Y-2628900D01*
X2019300Y-2628900D01*
X2176525Y-2578862D02*
G01*
X2113025Y-2674365D01*
X2113025Y-2578862D02*
G01*
X2176525Y-2578862D01*
X2113025Y-2674365D02*
G01*
X2176525Y-2674365D01*
X2206497Y-2578862D02*
G01*
X2206497Y-2674365D01*
X2206497Y-2578862D02*
G01*
X2270252Y-2674365D01*
X2270252Y-2578862D02*
G01*
X2270252Y-2674365D01*
X2402077Y-2560573D02*
G01*
X2392934Y-2569718D01*
X2383790Y-2583434D01*
X2374645Y-2601468D01*
X2370327Y-2624328D01*
X2370327Y-2642362D01*
X2374645Y-2665221D01*
X2383790Y-2683255D01*
X2392934Y-2696971D01*
X2402077Y-2706115D01*
X2432050Y-2596895D02*
G01*
X2441193Y-2592323D01*
X2454656Y-2578862D01*
X2454656Y-2674365D01*
X2484627Y-2633218D02*
G01*
X2566670Y-2633218D01*
X2650997Y-2592323D02*
G01*
X2646679Y-2583434D01*
X2632963Y-2578862D01*
X2623820Y-2578862D01*
X2610104Y-2583434D01*
X2601213Y-2596895D01*
X2596641Y-2619755D01*
X2596641Y-2642362D01*
X2601213Y-2660650D01*
X2610104Y-2669794D01*
X2623820Y-2674365D01*
X2628391Y-2674365D01*
X2642108Y-2669794D01*
X2650997Y-2660650D01*
X2655570Y-2646934D01*
X2655570Y-2642362D01*
X2650997Y-2628900D01*
X2642108Y-2619755D01*
X2628391Y-2615184D01*
X2623820Y-2615184D01*
X2610104Y-2619755D01*
X2601213Y-2628900D01*
X2596641Y-2642362D01*
X2685541Y-2560573D02*
G01*
X2694686Y-2569718D01*
X2703829Y-2583434D01*
X2712974Y-2601468D01*
X2717545Y-2624328D01*
X2717545Y-2642362D01*
X2712974Y-2665221D01*
X2703829Y-2683255D01*
X2694686Y-2696971D01*
X2685541Y-2706115D01*
X698500Y-3549395D02*
G01*
X707643Y-3544823D01*
X721106Y-3531362D01*
X721106Y-3626865D01*
X944372Y-3553968D02*
G01*
X944372Y-3549395D01*
X948943Y-3540505D01*
X953515Y-3535934D01*
X962406Y-3531362D01*
X980693Y-3531362D01*
X989838Y-3535934D01*
X994409Y-3540505D01*
X998981Y-3549395D01*
X998981Y-3558539D01*
X994409Y-3567684D01*
X985265Y-3581400D01*
X939800Y-3626865D01*
X1003554Y-3626865D01*
X1202943Y-3531362D02*
G01*
X1252981Y-3531362D01*
X1225550Y-3567684D01*
X1239265Y-3567684D01*
X1248409Y-3572255D01*
X1252981Y-3576828D01*
X1257554Y-3590289D01*
X1257554Y-3599434D01*
X1252981Y-3613150D01*
X1243838Y-3622294D01*
X1230122Y-3626865D01*
X1216406Y-3626865D01*
X1202943Y-3622294D01*
X1198372Y-3617721D01*
X1193800Y-3608578D01*
X1493265Y-3531362D02*
G01*
X1447800Y-3594862D01*
X1515872Y-3594862D01*
X1493265Y-3531362D02*
G01*
X1493265Y-3626865D01*
X1714500Y-3549395D02*
G01*
X1723643Y-3544823D01*
X1737106Y-3531362D01*
X1737106Y-3626865D01*
X1960372Y-3553968D02*
G01*
X1960372Y-3549395D01*
X1964943Y-3540505D01*
X1969515Y-3535934D01*
X1978406Y-3531362D01*
X1996693Y-3531362D01*
X2005838Y-3535934D01*
X2010409Y-3540505D01*
X2014981Y-3549395D01*
X2014981Y-3558539D01*
X2010409Y-3567684D01*
X2001265Y-3581400D01*
X1955800Y-3626865D01*
X2019554Y-3626865D01*
X2218943Y-3531362D02*
G01*
X2268981Y-3531362D01*
X2241550Y-3567684D01*
X2255265Y-3567684D01*
X2264409Y-3572255D01*
X2268981Y-3576828D01*
X2273554Y-3590289D01*
X2273554Y-3599434D01*
X2268981Y-3613150D01*
X2259838Y-3622294D01*
X2246122Y-3626865D01*
X2232406Y-3626865D01*
X2218943Y-3622294D01*
X2214372Y-3617721D01*
X2209800Y-3608578D01*
X2509265Y-3531362D02*
G01*
X2463800Y-3594862D01*
X2531872Y-3594862D01*
X2509265Y-3531362D02*
G01*
X2509265Y-3626865D01*
X2743200Y-3536695D02*
G01*
X2752343Y-3532123D01*
X2765806Y-3518662D01*
X2765806Y-3614165D01*
X2989072Y-3541268D02*
G01*
X2989072Y-3536695D01*
X2993643Y-3527805D01*
X2998215Y-3523234D01*
X3007106Y-3518662D01*
X3025393Y-3518662D01*
X3034538Y-3523234D01*
X3039109Y-3527805D01*
X3043681Y-3536695D01*
X3043681Y-3545839D01*
X3039109Y-3554984D01*
X3029965Y-3568700D01*
X2984500Y-3614165D01*
X3048254Y-3614165D01*
X3247643Y-3518662D02*
G01*
X3297681Y-3518662D01*
X3270250Y-3554984D01*
X3283965Y-3554984D01*
X3293109Y-3559555D01*
X3297681Y-3564128D01*
X3302254Y-3577589D01*
X3302254Y-3586734D01*
X3297681Y-3600450D01*
X3288538Y-3609594D01*
X3274822Y-3614165D01*
X3261106Y-3614165D01*
X3247643Y-3609594D01*
X3243072Y-3605021D01*
X3238500Y-3595878D01*
X3537965Y-3518662D02*
G01*
X3492500Y-3582162D01*
X3560572Y-3582162D01*
X3537965Y-3518662D02*
G01*
X3537965Y-3614165D01*
X2997200Y-3683762D02*
G01*
X2997200Y-3779265D01*
X2997200Y-3779265D02*
G01*
X3051809Y-3779265D01*
X3081781Y-3683762D02*
G01*
X3081781Y-3779265D01*
X3081781Y-3683762D02*
G01*
X3140709Y-3683762D01*
X3081781Y-3729228D02*
G01*
X3118104Y-3729228D01*
X3081781Y-3779265D02*
G01*
X3140709Y-3779265D01*
X3170936Y-3683762D02*
G01*
X3170936Y-3779265D01*
X3170936Y-3683762D02*
G01*
X3202686Y-3683762D01*
X3216402Y-3688334D01*
X3225291Y-3697223D01*
X3229863Y-3706368D01*
X3234436Y-3720084D01*
X3234436Y-3742689D01*
X3229863Y-3756405D01*
X3225291Y-3765550D01*
X3216402Y-3774694D01*
X3202686Y-3779265D01*
X3170936Y-3779265D01*
X3264408Y-3701795D02*
G01*
X3273552Y-3697223D01*
X3287268Y-3683762D01*
X3287268Y-3779265D01*
X1968500Y-3696462D02*
G01*
X1968500Y-3791965D01*
X1968500Y-3791965D02*
G01*
X2023109Y-3791965D01*
X2053081Y-3696462D02*
G01*
X2053081Y-3791965D01*
X2053081Y-3696462D02*
G01*
X2112009Y-3696462D01*
X2053081Y-3741928D02*
G01*
X2089404Y-3741928D01*
X2053081Y-3791965D02*
G01*
X2112009Y-3791965D01*
X2142236Y-3696462D02*
G01*
X2142236Y-3791965D01*
X2142236Y-3696462D02*
G01*
X2173986Y-3696462D01*
X2187702Y-3701034D01*
X2196591Y-3709923D01*
X2201163Y-3719068D01*
X2205736Y-3732784D01*
X2205736Y-3755389D01*
X2201163Y-3769105D01*
X2196591Y-3778250D01*
X2187702Y-3787394D01*
X2173986Y-3791965D01*
X2142236Y-3791965D01*
X2240279Y-3719068D02*
G01*
X2240279Y-3714495D01*
X2244852Y-3705605D01*
X2249424Y-3701034D01*
X2258568Y-3696462D01*
X2276602Y-3696462D01*
X2285745Y-3701034D01*
X2290318Y-3705605D01*
X2294890Y-3714495D01*
X2294890Y-3723639D01*
X2290318Y-3732784D01*
X2281174Y-3746500D01*
X2235708Y-3791965D01*
X2299461Y-3791965D01*
X939800Y-3696462D02*
G01*
X939800Y-3791965D01*
X939800Y-3791965D02*
G01*
X994409Y-3791965D01*
X1024381Y-3696462D02*
G01*
X1024381Y-3791965D01*
X1024381Y-3696462D02*
G01*
X1083309Y-3696462D01*
X1024381Y-3741928D02*
G01*
X1060704Y-3741928D01*
X1024381Y-3791965D02*
G01*
X1083309Y-3791965D01*
X1113536Y-3696462D02*
G01*
X1113536Y-3791965D01*
X1113536Y-3696462D02*
G01*
X1145286Y-3696462D01*
X1159002Y-3701034D01*
X1167891Y-3709923D01*
X1172463Y-3719068D01*
X1177036Y-3732784D01*
X1177036Y-3755389D01*
X1172463Y-3769105D01*
X1167891Y-3778250D01*
X1159002Y-3787394D01*
X1145286Y-3791965D01*
X1113536Y-3791965D01*
X1216152Y-3696462D02*
G01*
X1266190Y-3696462D01*
X1239011Y-3732784D01*
X1252474Y-3732784D01*
X1261618Y-3737355D01*
X1266190Y-3741928D01*
X1270761Y-3755389D01*
X1270761Y-3764534D01*
X1266190Y-3778250D01*
X1257045Y-3787394D01*
X1243329Y-3791965D01*
X1229868Y-3791965D01*
X1216152Y-3787394D01*
X1211579Y-3782821D01*
X1207008Y-3773678D01*
X3268472Y-2614168D02*
G01*
X3264154Y-2605023D01*
X3255009Y-2596134D01*
X3245865Y-2591562D01*
X3227577Y-2591562D01*
X3218688Y-2596134D01*
X3209543Y-2605023D01*
X3204972Y-2614168D01*
X3200400Y-2627884D01*
X3200400Y-2650489D01*
X3204972Y-2664205D01*
X3209543Y-2673350D01*
X3218688Y-2682494D01*
X3227577Y-2687065D01*
X3245865Y-2687065D01*
X3255009Y-2682494D01*
X3264154Y-2673350D01*
X3268472Y-2664205D01*
X3321304Y-2623312D02*
G01*
X3312159Y-2627884D01*
X3303015Y-2637028D01*
X3298697Y-2650489D01*
X3298697Y-2659634D01*
X3303015Y-2673350D01*
X3312159Y-2682494D01*
X3321304Y-2687065D01*
X3335020Y-2687065D01*
X3343909Y-2682494D01*
X3353054Y-2673350D01*
X3357625Y-2659634D01*
X3357625Y-2650489D01*
X3353054Y-2637028D01*
X3343909Y-2627884D01*
X3335020Y-2623312D01*
X3321304Y-2623312D01*
X3387597Y-2591562D02*
G01*
X3387597Y-2687065D01*
X3417570Y-2591562D02*
G01*
X3417570Y-2687065D01*
X3452113Y-2664205D02*
G01*
X3447795Y-2668778D01*
X3452113Y-2673350D01*
X3456686Y-2668778D01*
X3452113Y-2664205D01*
X469900Y-2578862D02*
G01*
X469900Y-2674365D01*
X469900Y-2578862D02*
G01*
X510794Y-2578862D01*
X524510Y-2583434D01*
X529081Y-2588005D01*
X533654Y-2596895D01*
X533654Y-2610612D01*
X529081Y-2619755D01*
X524510Y-2624328D01*
X510794Y-2628900D01*
X469900Y-2628900D01*
X627126Y-2578862D02*
G01*
X563626Y-2674365D01*
X563626Y-2578862D02*
G01*
X627126Y-2578862D01*
X563626Y-2674365D02*
G01*
X627126Y-2674365D01*
X657097Y-2578862D02*
G01*
X657097Y-2674365D01*
X657097Y-2578862D02*
G01*
X720852Y-2674365D01*
X720852Y-2578862D02*
G01*
X720852Y-2674365D01*
X852677Y-2560573D02*
G01*
X843534Y-2569718D01*
X834390Y-2583434D01*
X825245Y-2601468D01*
X820927Y-2624328D01*
X820927Y-2642362D01*
X825245Y-2665221D01*
X834390Y-2683255D01*
X843534Y-2696971D01*
X852677Y-2706115D01*
X946150Y-2578862D02*
G01*
X900684Y-2674365D01*
X882650Y-2578862D02*
G01*
X946150Y-2578862D01*
X976375Y-2633218D02*
G01*
X1058163Y-2633218D01*
X1088136Y-2596895D02*
G01*
X1097279Y-2592323D01*
X1110741Y-2578862D01*
X1110741Y-2674365D01*
X1145286Y-2601468D02*
G01*
X1145286Y-2596895D01*
X1149858Y-2588005D01*
X1154429Y-2583434D01*
X1163574Y-2578862D01*
X1181608Y-2578862D01*
X1190752Y-2583434D01*
X1195324Y-2588005D01*
X1199895Y-2596895D01*
X1199895Y-2606039D01*
X1195324Y-2615184D01*
X1186179Y-2628900D01*
X1140713Y-2674365D01*
X1204468Y-2674365D01*
X1234440Y-2560573D02*
G01*
X1243584Y-2569718D01*
X1252727Y-2583434D01*
X1261618Y-2601468D01*
X1266190Y-2624328D01*
X1266190Y-2642362D01*
X1261618Y-2665221D01*
X1252727Y-2683255D01*
X1243584Y-2696971D01*
X1234440Y-2706115D01*
X139702Y-3461512D02*
G01*
X139702Y-3525265D01*
X139702Y-3479800D02*
G01*
X153418Y-3466084D01*
X162308Y-3461512D01*
X176024Y-3461512D01*
X185168Y-3466084D01*
X189740Y-3479800D01*
X189740Y-3525265D01*
X274322Y-3475228D02*
G01*
X265178Y-3466084D01*
X256034Y-3461512D01*
X242318Y-3461512D01*
X233428Y-3466084D01*
X224284Y-3475228D01*
X219712Y-3488689D01*
X219712Y-3497834D01*
X224284Y-3511550D01*
X233428Y-3520694D01*
X242318Y-3525265D01*
X256034Y-3525265D01*
X265178Y-3520694D01*
X274322Y-3511550D01*
X393702Y-3461512D02*
G01*
X393702Y-3525265D01*
X393702Y-3479800D02*
G01*
X407418Y-3466084D01*
X416308Y-3461512D01*
X430024Y-3461512D01*
X439168Y-3466084D01*
X443740Y-3479800D01*
X443740Y-3525265D01*
X528322Y-3475228D02*
G01*
X519178Y-3466084D01*
X510034Y-3461512D01*
X496318Y-3461512D01*
X487428Y-3466084D01*
X478284Y-3475228D01*
X473712Y-3488689D01*
X473712Y-3497834D01*
X478284Y-3511550D01*
X487428Y-3520694D01*
X496318Y-3525265D01*
X510034Y-3525265D01*
X519178Y-3520694D01*
X528322Y-3511550D01*
X3149600Y-6668190D02*
G01*
X3149600Y-6763646D01*
X3149600Y-6668190D02*
G01*
X3185962Y-6763646D01*
X3222327Y-6668190D02*
G01*
X3185962Y-6763646D01*
X3222327Y-6668190D02*
G01*
X3222327Y-6763646D01*
X3261418Y-6668190D02*
G01*
X3311418Y-6668190D01*
X3284146Y-6704553D01*
X3297781Y-6704553D01*
X3306871Y-6709100D01*
X3311418Y-6713646D01*
X3315962Y-6727281D01*
X3315962Y-6736372D01*
X3311418Y-6750009D01*
X3302327Y-6759100D01*
X3288690Y-6763646D01*
X3275053Y-6763646D01*
X3261418Y-6759100D01*
X3256871Y-6754553D01*
X3252327Y-6745462D01*
D11*
G75*
G01*
X3019006Y-5041011D02*
G03*
X3018981Y-5041443I-10001J372D01*
G75*
G01*
X3019006Y-5041011D02*
G03*
X3018981Y-5041443I-10001J372D01*
D12*
G75*
G01*
X2253806Y-4148811D02*
G02*
X3424187Y-4148811I585190J-231688D01*
G75*
G01*
X3424187Y-4614189D02*
G02*
X2253806Y-4614189I-585191J231688D01*
D11*
G75*
G01*
X1069010Y-5041011D02*
G03*
X1068984Y-5041443I-10001J372D01*
G75*
G01*
X1069010Y-5041011D02*
G03*
X1068984Y-5041443I-10001J372D01*
D12*
G75*
G01*
X303809Y-4148811D02*
G02*
X1474191Y-4148811I585191J-231688D01*
G75*
G01*
X1474191Y-4614189D02*
G02*
X303809Y-4614189I-585191J231688D01*
D11*
G75*
G01*
X2044007Y-6729707D02*
G03*
X2043981Y-6730139I-10001J371D01*
G75*
G01*
X2044007Y-6729707D02*
G03*
X2043981Y-6730139I-10001J371D01*
D12*
G75*
G01*
X1278806Y-5837507D02*
G02*
X2449187Y-5837507I585191J-231688D01*
G75*
G01*
X2449187Y-6302886D02*
G02*
X1278806Y-6302886I-585190J231689D01*
D13*
X2549016Y-1807997D02*
G01*
X3539007Y-1807997D01*
X3539007Y-2383002D01*
X2549016Y-2383002D01*
X2549016Y-1807997D01*
X254000Y-1130300D02*
G01*
X1778000Y-1130300D01*
X1778000Y-2540000D01*
X254000Y-2540000D01*
X254000Y-1130300D01*
G36*
X3219450Y-2946603D02*
G01*
X3536950Y-2946603D01*
X3536950Y-2971596D01*
X3219450Y-2971596D01*
G37*
G36*
X1676400Y-2933700D02*
G01*
X3048000Y-2933700D01*
X3048000Y-2959100D01*
X1676400Y-2959100D01*
G37*
G36*
X165100Y-2946400D02*
G01*
X1536700Y-2946400D01*
X1536700Y-2971800D01*
X165100Y-2971800D01*
G37*
G36*
X647700Y-3454400D02*
G01*
X1547698Y-3454400D01*
X1547698Y-3479393D01*
X647700Y-3479393D01*
G37*
G36*
X1663700Y-3454400D02*
G01*
X2563698Y-3454400D01*
X2563698Y-3479393D01*
X1663700Y-3479393D01*
G37*
G36*
X2692400Y-3441700D02*
G01*
X3592398Y-3441700D01*
X3592398Y-3466693D01*
X2692400Y-3466693D01*
G37*
M02*
