G04 Layer: TopLayer*
G04 EasyEDA v6.5.42, 2024-04-22 14:16:48*
G04 bdecda6f3f7540baa8991d5417232957,c115876feeed43bc8c79c948ea027e3a,10*
G04 Gerber Generator version 0.2*
G04 Scale: 100 percent, Rotated: No, Reflected: No *
G04 Dimensions in millimeters *
G04 leading zeros omitted , absolute positions ,4 integer and 5 decimal *
%FSLAX45Y45*%
%MOMM*%

%ADD10C,1.0000*%
%ADD11C,0.4000*%
%ADD12C,4.0160*%
%ADD13C,1.8000*%
%ADD14C,1.9000*%
%ADD15C,1.7500*%

%LPD*%
D10*
X3043936Y-2095500D02*
G01*
X3043936Y-2590800D01*
X3500881Y-2590800D01*
X3500881Y-2809494D01*
D11*
X2946499Y-4236491D02*
G01*
X3060700Y-3886200D01*
X3246983Y-3309391D01*
X2669031Y-4431537D02*
G01*
X2451100Y-4152900D01*
X2692400Y-3810000D01*
X2738881Y-3309365D01*
X1059002Y-4431512D02*
G01*
X1067587Y-4431512D01*
X1320800Y-4127500D01*
X1905000Y-3924300D01*
X2222500Y-3632200D01*
X2413000Y-3543300D01*
X2484983Y-3309391D01*
X719074Y-4431537D02*
G01*
X573786Y-4255770D01*
X571500Y-4064000D01*
X1511300Y-3517900D01*
X1722881Y-3309365D01*
X781558Y-4236465D02*
G01*
X876300Y-4051300D01*
X1752600Y-3556000D01*
X1976881Y-3309365D01*
X996441Y-4236465D02*
G01*
X1193800Y-4064000D01*
X2057400Y-3568700D01*
X2230881Y-3309365D01*
X1143000Y-1319479D02*
G01*
X1143000Y-1447800D01*
X2273300Y-1447800D01*
X2286000Y-2628900D01*
X2484881Y-2809494D01*
X635000Y-1319479D02*
G01*
X635000Y-1612900D01*
X1976881Y-1612900D01*
X1976881Y-2809494D01*
X1651000Y-2349500D02*
G01*
X1651000Y-2627401D01*
X1469009Y-2809392D01*
X1397000Y-2349500D02*
G01*
X1397000Y-2627401D01*
X1215009Y-2809392D01*
X1143000Y-2349500D02*
G01*
X1143000Y-2627401D01*
X961009Y-2809392D01*
X889000Y-2349500D02*
G01*
X889000Y-2627401D01*
X707009Y-2809392D01*
X635000Y-2349500D02*
G01*
X635000Y-2627391D01*
X452998Y-2809392D01*
X381000Y-2349500D02*
G01*
X381000Y-2627391D01*
X198998Y-2809392D01*
X1651000Y-1319529D02*
G01*
X1651000Y-1181100D01*
X2743200Y-1181100D01*
X2476500Y-2247900D01*
X2857500Y-2590800D01*
X2992881Y-2809494D01*
D12*
G01*
X3464001Y-4381500D03*
G01*
X2214016Y-4381500D03*
D13*
G01*
X2669006Y-4431512D03*
G01*
X3009011Y-4431512D03*
G01*
X2731515Y-4236491D03*
G01*
X2946501Y-4236491D03*
D12*
G01*
X1513992Y-4381500D03*
G01*
X264007Y-4381500D03*
D13*
G01*
X718997Y-4431512D03*
G01*
X1059002Y-4431512D03*
G01*
X781507Y-4236491D03*
G01*
X996492Y-4236491D03*
D12*
G01*
X2488996Y-6070193D03*
G01*
X1239011Y-6070193D03*
D13*
G01*
X1694002Y-6120206D03*
G01*
X2034006Y-6120206D03*
G01*
X1756511Y-5925185D03*
G01*
X1971497Y-5925185D03*
D14*
G01*
X3293999Y-2095500D03*
G01*
X3044012Y-2095500D03*
G01*
X2794000Y-2095500D03*
D15*
G01*
X3500983Y-3309391D03*
G01*
X3246983Y-3309391D03*
G01*
X2992983Y-3309391D03*
G01*
X2738983Y-3309391D03*
G01*
X2484983Y-3309391D03*
G01*
X2231009Y-3309391D03*
G01*
X1977009Y-3309391D03*
G01*
X1723009Y-3309391D03*
G01*
X1469009Y-3309391D03*
G01*
X1215009Y-3309391D03*
G01*
X961009Y-3309391D03*
G01*
X707009Y-3309391D03*
G01*
X453009Y-3309391D03*
G01*
X199009Y-3309391D03*
G01*
X3500983Y-2809392D03*
G01*
X3246983Y-2809392D03*
G01*
X2992983Y-2809392D03*
G01*
X2738983Y-2809392D03*
G01*
X2484983Y-2809392D03*
G01*
X2231009Y-2809392D03*
G01*
X1977009Y-2809392D03*
G01*
X1723009Y-2809392D03*
G01*
X1469009Y-2809392D03*
G01*
X1215009Y-2809392D03*
G01*
X961009Y-2809392D03*
G01*
X707009Y-2809392D03*
G01*
X453009Y-2809392D03*
G01*
X199009Y-2809392D03*
G01*
X1651000Y-1319479D03*
G01*
X1397000Y-1319479D03*
G01*
X1143000Y-1319479D03*
G01*
X889000Y-1319479D03*
G01*
X635000Y-1319479D03*
G01*
X381000Y-1319479D03*
G01*
X1651000Y-2349500D03*
G01*
X381000Y-2349500D03*
G01*
X635000Y-2349500D03*
G01*
X889000Y-2349500D03*
G01*
X1143000Y-2349500D03*
G01*
X1397000Y-2349500D03*
M02*
