G04 Layer: BottomLayer*
G04 EasyEDA v6.5.42, 2024-04-22 14:16:48*
G04 bdecda6f3f7540baa8991d5417232957,c115876feeed43bc8c79c948ea027e3a,10*
G04 Gerber Generator version 0.2*
G04 Scale: 100 percent, Rotated: No, Reflected: No *
G04 Dimensions in millimeters *
G04 leading zeros omitted , absolute positions ,4 integer and 5 decimal *
%FSLAX45Y45*%
%MOMM*%

%ADD10C,0.4000*%
%ADD11C,1.0000*%
%ADD12C,4.0160*%
%ADD13C,1.8000*%
%ADD14C,1.9000*%
%ADD15C,1.7500*%

%LPD*%
D10*
X2992881Y-3309365D02*
G01*
X2908300Y-3644900D01*
X2832100Y-3949700D01*
X2731515Y-4236465D01*
X3009008Y-4431512D02*
G01*
X3352800Y-3949700D01*
X3500983Y-3309391D01*
X706881Y-3309365D02*
G01*
X706881Y-3911600D01*
X546100Y-3911600D01*
X546100Y-5486400D01*
X1524000Y-5486400D01*
X1524000Y-6120129D01*
X1693925Y-6120129D01*
X1214881Y-3309365D02*
G01*
X1214881Y-3721100D01*
X1790700Y-3721100D01*
X1790700Y-5613400D01*
X1971547Y-5613400D01*
X1971547Y-5925057D01*
X960881Y-3309365D02*
G01*
X965200Y-3309365D01*
X965200Y-3911600D01*
X1244600Y-3911600D01*
X1244600Y-5029200D01*
X1651000Y-5321300D01*
X1663700Y-5740400D01*
X1756409Y-5925057D01*
X1469009Y-3309391D02*
G01*
X1473200Y-3309391D01*
X1473200Y-3581400D01*
X1955800Y-3581400D01*
X1955800Y-5384800D01*
X2222500Y-5384800D01*
X2222500Y-5829300D01*
X2197100Y-5994400D01*
X2034006Y-6120206D01*
X889000Y-1319479D02*
G01*
X889000Y-1524000D01*
X2146300Y-1536700D01*
X2159000Y-2667000D01*
X2230881Y-2809494D01*
X381000Y-1319479D02*
G01*
X381000Y-1727200D01*
X1854200Y-1739900D01*
X1866900Y-2463800D01*
X1722881Y-2809494D01*
X1397000Y-1319529D02*
G01*
X1397000Y-1117600D01*
X2374900Y-1117600D01*
X2413000Y-2463800D01*
X2717800Y-2578100D01*
X2738881Y-2809494D01*
D11*
X2794000Y-2095500D02*
G01*
X2870200Y-2362200D01*
X3246881Y-2374900D01*
X3246881Y-2809494D01*
D12*
G01*
X3464001Y-4381500D03*
G01*
X2214016Y-4381500D03*
D13*
G01*
X2669006Y-4431512D03*
G01*
X3009011Y-4431512D03*
G01*
X2731515Y-4236491D03*
G01*
X2946501Y-4236491D03*
D12*
G01*
X1513992Y-4381500D03*
G01*
X264007Y-4381500D03*
D13*
G01*
X718997Y-4431512D03*
G01*
X1059002Y-4431512D03*
G01*
X781507Y-4236491D03*
G01*
X996492Y-4236491D03*
D12*
G01*
X2488996Y-6070193D03*
G01*
X1239011Y-6070193D03*
D13*
G01*
X1694002Y-6120206D03*
G01*
X2034006Y-6120206D03*
G01*
X1756511Y-5925185D03*
G01*
X1971497Y-5925185D03*
D14*
G01*
X3293999Y-2095500D03*
G01*
X3044012Y-2095500D03*
G01*
X2794000Y-2095500D03*
D15*
G01*
X3500983Y-3309391D03*
G01*
X3246983Y-3309391D03*
G01*
X2992983Y-3309391D03*
G01*
X2738983Y-3309391D03*
G01*
X2484983Y-3309391D03*
G01*
X2231009Y-3309391D03*
G01*
X1977009Y-3309391D03*
G01*
X1723009Y-3309391D03*
G01*
X1469009Y-3309391D03*
G01*
X1215009Y-3309391D03*
G01*
X961009Y-3309391D03*
G01*
X707009Y-3309391D03*
G01*
X453009Y-3309391D03*
G01*
X199009Y-3309391D03*
G01*
X3500983Y-2809392D03*
G01*
X3246983Y-2809392D03*
G01*
X2992983Y-2809392D03*
G01*
X2738983Y-2809392D03*
G01*
X2484983Y-2809392D03*
G01*
X2231009Y-2809392D03*
G01*
X1977009Y-2809392D03*
G01*
X1723009Y-2809392D03*
G01*
X1469009Y-2809392D03*
G01*
X1215009Y-2809392D03*
G01*
X961009Y-2809392D03*
G01*
X707009Y-2809392D03*
G01*
X453009Y-2809392D03*
G01*
X199009Y-2809392D03*
G01*
X1651000Y-1319479D03*
G01*
X1397000Y-1319479D03*
G01*
X1143000Y-1319479D03*
G01*
X889000Y-1319479D03*
G01*
X635000Y-1319479D03*
G01*
X381000Y-1319479D03*
G01*
X1651000Y-2349500D03*
G01*
X381000Y-2349500D03*
G01*
X635000Y-2349500D03*
G01*
X889000Y-2349500D03*
G01*
X1143000Y-2349500D03*
G01*
X1397000Y-2349500D03*
M02*
