M48
METRIC,LZ,000.000
;FILE_FORMAT=3:3
;TYPE=PLATED
;Layer: PTH_Through
;EasyEDA v6.5.42, 2024-04-22 14:16:48
;7752da08fb664a89a939598d6395460c,c115876feeed43bc8c79c948ea027e3a,10
;Gerber Generator version 0.2
;Holesize 1 = 0.901 mm
T01C0.901
;Holesize 2 = 1.301 mm
T02C1.301
;Holesize 3 = 3.000 mm
T03C3.000
%
G05
G90
T01
X035850Y-012510
X033350Y-012510
X025850Y-012510
X023350Y-012510
X020850Y-012510
X018350Y-012510
X015850Y-012510
X013350Y-012510
X010850Y-012510
X008350Y-012510
X005850Y-012510
X003350Y-012510
X031000Y-027050
X031000Y-024550
X031000Y-022050
X030850Y-012510
X028350Y-012510
T02
X009603Y-064127
X013003Y-064127
X010228Y-062177
X012378Y-062177
X009603Y-025197
X013003Y-025197
X010228Y-023247
X012378Y-023247
X009603Y-044662
X013003Y-044662
X010228Y-042712
X012378Y-042712
T03
X017553Y-063627
X005053Y-063627
X017553Y-024697
X005053Y-024697
X017553Y-044162
X005053Y-044162
M30
