G04 Layer: BottomSilkscreenLayer*
G04 EasyEDA v6.5.42, 2024-04-22 14:16:48*
G04 7752da08fb664a89a939598d6395460c,c115876feeed43bc8c79c948ea027e3a,10*
G04 Gerber Generator version 0.2*
G04 Scale: 100 percent, Rotated: No, Reflected: No *
G04 Dimensions in millimeters *
G04 leading zeros omitted , absolute positions ,4 integer and 5 decimal *
%FSLAX45Y45*%
%MOMM*%

%ADD10C,0.2032*%
%ADD11C,0.2540*%

%LPD*%
D10*
X2451100Y-432490D02*
G01*
X2451100Y-527946D01*
X2451100Y-432490D02*
G01*
X2414737Y-527946D01*
X2378372Y-432490D02*
G01*
X2414737Y-527946D01*
X2378372Y-432490D02*
G01*
X2378372Y-527946D01*
X2293828Y-464309D02*
G01*
X2293828Y-527946D01*
X2293828Y-477946D02*
G01*
X2302918Y-468853D01*
X2312009Y-464309D01*
X2325646Y-464309D01*
X2334737Y-468853D01*
X2343828Y-477946D01*
X2348372Y-491581D01*
X2348372Y-500672D01*
X2343828Y-514309D01*
X2334737Y-523400D01*
X2325646Y-527946D01*
X2312009Y-527946D01*
X2302918Y-523400D01*
X2293828Y-514309D01*
X2263828Y-432490D02*
G01*
X2259281Y-437037D01*
X2254737Y-432490D01*
X2259281Y-427946D01*
X2263828Y-432490D01*
X2259281Y-464309D02*
G01*
X2259281Y-527946D01*
X2224737Y-464309D02*
G01*
X2224737Y-527946D01*
X2224737Y-482490D02*
G01*
X2211100Y-468853D01*
X2202009Y-464309D01*
X2188372Y-464309D01*
X2179281Y-468853D01*
X2174737Y-482490D01*
X2174737Y-527946D01*
X2074738Y-432490D02*
G01*
X2074738Y-527946D01*
X2074738Y-432490D02*
G01*
X2033828Y-432490D01*
X2020191Y-437037D01*
X2015647Y-441581D01*
X2011100Y-450672D01*
X2011100Y-459762D01*
X2015647Y-468853D01*
X2020191Y-473400D01*
X2033828Y-477946D01*
X2074738Y-477946D02*
G01*
X2033828Y-477946D01*
X2020191Y-482490D01*
X2015647Y-487037D01*
X2011100Y-496128D01*
X2011100Y-509762D01*
X2015647Y-518853D01*
X2020191Y-523400D01*
X2033828Y-527946D01*
X2074738Y-527946D01*
X1981100Y-450672D02*
G01*
X1972010Y-446128D01*
X1958373Y-432490D01*
X1958373Y-527946D01*
X1882919Y-432490D02*
G01*
X1928373Y-496128D01*
X1860191Y-496128D01*
X1882919Y-432490D02*
G01*
X1882919Y-527946D01*
X1830191Y-432490D02*
G01*
X1830191Y-527946D01*
X1830191Y-432490D02*
G01*
X1789282Y-432490D01*
X1775647Y-437037D01*
X1771101Y-441581D01*
X1766554Y-450672D01*
X1766554Y-459762D01*
X1771101Y-468853D01*
X1775647Y-473400D01*
X1789282Y-477946D01*
X1830191Y-477946D02*
G01*
X1789282Y-477946D01*
X1775647Y-482490D01*
X1771101Y-487037D01*
X1766554Y-496128D01*
X1766554Y-509762D01*
X1771101Y-518853D01*
X1775647Y-523400D01*
X1789282Y-527946D01*
X1830191Y-527946D01*
X1736554Y-487037D02*
G01*
X1654738Y-487037D01*
X1624738Y-432490D02*
G01*
X1561101Y-527946D01*
X1561101Y-432490D02*
G01*
X1624738Y-527946D01*
X1531101Y-432490D02*
G01*
X1531101Y-527946D01*
X1467464Y-432490D02*
G01*
X1467464Y-527946D01*
X1531101Y-477946D02*
G01*
X1467464Y-477946D01*
X1437464Y-487037D02*
G01*
X1355648Y-487037D01*
X1289283Y-432490D02*
G01*
X1325648Y-527946D01*
X1289283Y-432490D02*
G01*
X1252921Y-527946D01*
X1312011Y-496128D02*
G01*
X1266555Y-496128D01*
X3517900Y-7125390D02*
G01*
X3517900Y-7220846D01*
X3517900Y-7125390D02*
G01*
X3481537Y-7220846D01*
X3445172Y-7125390D02*
G01*
X3481537Y-7220846D01*
X3445172Y-7125390D02*
G01*
X3445172Y-7220846D01*
X3406081Y-7125390D02*
G01*
X3356081Y-7125390D01*
X3383353Y-7161753D01*
X3369718Y-7161753D01*
X3360628Y-7166300D01*
X3356081Y-7170846D01*
X3351537Y-7184481D01*
X3351537Y-7193572D01*
X3356081Y-7207209D01*
X3365172Y-7216300D01*
X3378809Y-7220846D01*
X3392446Y-7220846D01*
X3406081Y-7216300D01*
X3410628Y-7211753D01*
X3415172Y-7202662D01*
X1873351Y-674118D02*
G01*
X1873351Y-769368D01*
X1873351Y-769368D02*
G01*
X1818741Y-769368D01*
X1788769Y-674118D02*
G01*
X1788769Y-769368D01*
X1788769Y-674118D02*
G01*
X1729587Y-674118D01*
X1788769Y-719330D02*
G01*
X1752447Y-719330D01*
X1788769Y-769368D02*
G01*
X1729587Y-769368D01*
X1699615Y-674118D02*
G01*
X1699615Y-769368D01*
X1699615Y-674118D02*
G01*
X1667865Y-674118D01*
X1654149Y-678436D01*
X1645005Y-687580D01*
X1640687Y-696724D01*
X1636115Y-710440D01*
X1636115Y-733046D01*
X1640687Y-746762D01*
X1645005Y-755906D01*
X1654149Y-764796D01*
X1667865Y-769368D01*
X1699615Y-769368D01*
X1601571Y-696724D02*
G01*
X1601571Y-692152D01*
X1596999Y-683008D01*
X1592427Y-678436D01*
X1583283Y-674118D01*
X1564995Y-674118D01*
X1556105Y-678436D01*
X1551533Y-683008D01*
X1546961Y-692152D01*
X1546961Y-701296D01*
X1551533Y-710440D01*
X1560677Y-723902D01*
X1606143Y-769368D01*
X1542389Y-769368D01*
X1352600Y-933399D02*
G01*
X1343456Y-928827D01*
X1329994Y-915365D01*
X1329994Y-1010869D01*
X1614728Y-937971D02*
G01*
X1614728Y-933399D01*
X1610156Y-924509D01*
X1605584Y-919937D01*
X1596694Y-915365D01*
X1578406Y-915365D01*
X1569262Y-919937D01*
X1564690Y-924509D01*
X1560118Y-933399D01*
X1560118Y-942543D01*
X1564690Y-951687D01*
X1573834Y-965403D01*
X1619300Y-1010869D01*
X1555546Y-1010869D01*
X1838756Y-915365D02*
G01*
X1788718Y-915365D01*
X1816150Y-951687D01*
X1802434Y-951687D01*
X1793290Y-956259D01*
X1788718Y-960831D01*
X1784146Y-974293D01*
X1784146Y-983437D01*
X1788718Y-997153D01*
X1797862Y-1006297D01*
X1811578Y-1010869D01*
X1825294Y-1010869D01*
X1838756Y-1006297D01*
X1843328Y-1001725D01*
X1847900Y-992581D01*
X2056434Y-915365D02*
G01*
X2101900Y-978865D01*
X2033828Y-978865D01*
X2056434Y-915365D02*
G01*
X2056434Y-1010869D01*
X844600Y-674065D02*
G01*
X844600Y-769569D01*
X844600Y-769569D02*
G01*
X789990Y-769569D01*
X760018Y-674065D02*
G01*
X760018Y-769569D01*
X760018Y-674065D02*
G01*
X701090Y-674065D01*
X760018Y-719531D02*
G01*
X723696Y-719531D01*
X760018Y-769569D02*
G01*
X701090Y-769569D01*
X670864Y-674065D02*
G01*
X670864Y-769569D01*
X670864Y-674065D02*
G01*
X639114Y-674065D01*
X625398Y-678637D01*
X616508Y-687527D01*
X611936Y-696671D01*
X607364Y-710387D01*
X607364Y-732993D01*
X611936Y-746709D01*
X616508Y-755853D01*
X625398Y-764997D01*
X639114Y-769569D01*
X670864Y-769569D01*
X577392Y-692099D02*
G01*
X568248Y-687527D01*
X554532Y-674065D01*
X554532Y-769569D01*
X349300Y-933399D02*
G01*
X340156Y-928827D01*
X326694Y-915365D01*
X326694Y-1010869D01*
X611428Y-937971D02*
G01*
X611428Y-933399D01*
X606856Y-924509D01*
X602284Y-919937D01*
X593394Y-915365D01*
X575106Y-915365D01*
X565962Y-919937D01*
X561390Y-924509D01*
X556818Y-933399D01*
X556818Y-942543D01*
X561390Y-951687D01*
X570534Y-965403D01*
X616000Y-1010869D01*
X552246Y-1010869D01*
X848156Y-915365D02*
G01*
X798118Y-915365D01*
X825550Y-951687D01*
X811834Y-951687D01*
X802690Y-956259D01*
X798118Y-960831D01*
X793546Y-974293D01*
X793546Y-983437D01*
X798118Y-997153D01*
X807262Y-1006297D01*
X820978Y-1010869D01*
X834694Y-1010869D01*
X848156Y-1006297D01*
X852728Y-1001725D01*
X857300Y-992581D01*
X1053134Y-915365D02*
G01*
X1098600Y-978865D01*
X1030528Y-978865D01*
X1053134Y-915365D02*
G01*
X1053134Y-1010869D01*
X3632200Y-956818D02*
G01*
X3550411Y-956818D01*
X3337306Y-915923D02*
G01*
X3337306Y-997965D01*
X3378200Y-956818D02*
G01*
X3296411Y-956818D01*
X3041700Y-673994D02*
G01*
X3041700Y-769449D01*
X3041700Y-769449D02*
G01*
X2987154Y-769449D01*
X2957154Y-673994D02*
G01*
X2957154Y-769449D01*
X2957154Y-673994D02*
G01*
X2898063Y-673994D01*
X2957154Y-719449D02*
G01*
X2920791Y-719449D01*
X2957154Y-769449D02*
G01*
X2898063Y-769449D01*
X2868063Y-673994D02*
G01*
X2868063Y-769449D01*
X2868063Y-673994D02*
G01*
X2836247Y-673994D01*
X2822610Y-678540D01*
X2813519Y-687631D01*
X2808973Y-696721D01*
X2804429Y-710356D01*
X2804429Y-733084D01*
X2808973Y-746721D01*
X2813519Y-755812D01*
X2822610Y-764903D01*
X2836247Y-769449D01*
X2868063Y-769449D01*
X2765338Y-673994D02*
G01*
X2715338Y-673994D01*
X2742610Y-710356D01*
X2728973Y-710356D01*
X2719882Y-714903D01*
X2715338Y-719449D01*
X2710792Y-733084D01*
X2710792Y-742175D01*
X2715338Y-755812D01*
X2724429Y-764903D01*
X2738064Y-769449D01*
X2751701Y-769449D01*
X2765338Y-764903D01*
X2769882Y-760356D01*
X2774429Y-751265D01*
X2598973Y-655812D02*
G01*
X2680792Y-801265D01*
X2568973Y-673994D02*
G01*
X2568973Y-769449D01*
X2568973Y-673994D02*
G01*
X2532611Y-769449D01*
X2496248Y-673994D02*
G01*
X2532611Y-769449D01*
X2496248Y-673994D02*
G01*
X2496248Y-769449D01*
X2466248Y-673994D02*
G01*
X2461701Y-678540D01*
X2457155Y-673994D01*
X2461701Y-669450D01*
X2466248Y-673994D01*
X2461701Y-705812D02*
G01*
X2461701Y-769449D01*
X2377155Y-719449D02*
G01*
X2381702Y-710356D01*
X2395339Y-705812D01*
X2408974Y-705812D01*
X2422611Y-710356D01*
X2427155Y-719449D01*
X2422611Y-728540D01*
X2413520Y-733084D01*
X2390792Y-737631D01*
X2381702Y-742175D01*
X2377155Y-751265D01*
X2377155Y-755812D01*
X2381702Y-764903D01*
X2395339Y-769449D01*
X2408974Y-769449D01*
X2422611Y-764903D01*
X2427155Y-755812D01*
X2292611Y-719449D02*
G01*
X2301702Y-710356D01*
X2310792Y-705812D01*
X2324430Y-705812D01*
X2333520Y-710356D01*
X2342611Y-719449D01*
X2347155Y-733084D01*
X2347155Y-742175D01*
X2342611Y-755812D01*
X2333520Y-764903D01*
X2324430Y-769449D01*
X2310792Y-769449D01*
X2301702Y-764903D01*
X2292611Y-755812D01*
X2336800Y-933195D02*
G01*
X2327656Y-928623D01*
X2314193Y-915162D01*
X2314193Y-1010665D01*
X2598927Y-937768D02*
G01*
X2598927Y-933195D01*
X2594356Y-924305D01*
X2589784Y-919734D01*
X2580893Y-915162D01*
X2562606Y-915162D01*
X2553461Y-919734D01*
X2548890Y-924305D01*
X2544318Y-933195D01*
X2544318Y-942339D01*
X2548890Y-951484D01*
X2558034Y-965200D01*
X2603500Y-1010665D01*
X2539745Y-1010665D01*
X2822956Y-915162D02*
G01*
X2772918Y-915162D01*
X2800350Y-951484D01*
X2786634Y-951484D01*
X2777490Y-956055D01*
X2772918Y-960628D01*
X2768345Y-974089D01*
X2768345Y-983234D01*
X2772918Y-996950D01*
X2782061Y-1006094D01*
X2795777Y-1010665D01*
X2809493Y-1010665D01*
X2822956Y-1006094D01*
X2827527Y-1001521D01*
X2832100Y-992378D01*
X3040634Y-915162D02*
G01*
X3086100Y-978662D01*
X3018027Y-978662D01*
X3040634Y-915162D02*
G01*
X3040634Y-1010665D01*
X3487927Y-709168D02*
G01*
X3492245Y-700023D01*
X3501390Y-691134D01*
X3510534Y-686562D01*
X3528822Y-686562D01*
X3537711Y-691134D01*
X3546856Y-700023D01*
X3551427Y-709168D01*
X3556000Y-722884D01*
X3556000Y-745489D01*
X3551427Y-759205D01*
X3546856Y-768350D01*
X3537711Y-777494D01*
X3528822Y-782065D01*
X3510534Y-782065D01*
X3501390Y-777494D01*
X3492245Y-768350D01*
X3487927Y-759205D01*
X3435095Y-718312D02*
G01*
X3444240Y-722884D01*
X3453384Y-732028D01*
X3457702Y-745489D01*
X3457702Y-754634D01*
X3453384Y-768350D01*
X3444240Y-777494D01*
X3435095Y-782065D01*
X3421379Y-782065D01*
X3412490Y-777494D01*
X3403345Y-768350D01*
X3398774Y-754634D01*
X3398774Y-745489D01*
X3403345Y-732028D01*
X3412490Y-722884D01*
X3421379Y-718312D01*
X3435095Y-718312D01*
X3368802Y-686562D02*
G01*
X3368802Y-782065D01*
X3338829Y-686562D02*
G01*
X3338829Y-782065D01*
D11*
G75*
G01
X800506Y-450012D02*
G03X800506Y-450012I-350495J0D01*
G75*
G01
X3820490Y-450012D02*
G03X3820490Y-450012I-350495J0D01*
G75*
G01
X3820490Y-7649997D02*
G03X3820490Y-7649997I-350495J0D01*
G75*
G01
X800506Y-7649997D02*
G03X800506Y-7649997I-350495J0D01*
G36*
X1295501Y-838606D02*
G01*
X2095500Y-838606D01*
X2095500Y-863600D01*
X1295501Y-863600D01*
G37*
G36*
X304901Y-838606D02*
G01*
X1104900Y-838606D01*
X1104900Y-863600D01*
X304901Y-863600D01*
G37*
X89992Y-1016000D02*
G01*
X3829989Y-1016000D01*
X3829989Y-1498600D01*
X89992Y-1498600D01*
X89992Y-1016000D01*
G36*
X2279700Y-838403D02*
G01*
X3079699Y-838403D01*
X3079699Y-863396D01*
X2279700Y-863396D01*
G37*
G36*
X3302000Y-850900D02*
G01*
X3619500Y-850900D01*
X3619500Y-875893D01*
X3302000Y-875893D01*
G37*
M02*
