G04 Layer: TopSilkscreenLayer*
G04 EasyEDA v6.5.42, 2024-04-22 14:16:48*
G04 7752da08fb664a89a939598d6395460c,c115876feeed43bc8c79c948ea027e3a,10*
G04 Gerber Generator version 0.2*
G04 Scale: 100 percent, Rotated: No, Reflected: No *
G04 Dimensions in millimeters *
G04 leading zeros omitted , absolute positions ,4 integer and 5 decimal *
%FSLAX45Y45*%
%MOMM*%

%ADD10C,0.2032*%
%ADD11C,0.1999*%
%ADD12C,0.1270*%
%ADD13C,0.2540*%

%LPD*%
D10*
X2336038Y-1841500D02*
G01*
X2240534Y-1841500D01*
X2240534Y-1841500D02*
G01*
X2240534Y-1896110D01*
X2336038Y-1926081D02*
G01*
X2240534Y-1926081D01*
X2336038Y-1926081D02*
G01*
X2336038Y-1985010D01*
X2290572Y-1926081D02*
G01*
X2290572Y-1962404D01*
X2240534Y-1926081D02*
G01*
X2240534Y-1985010D01*
X2336038Y-2015236D02*
G01*
X2240534Y-2015236D01*
X2336038Y-2015236D02*
G01*
X2336038Y-2046986D01*
X2331465Y-2060702D01*
X2322575Y-2069592D01*
X2313431Y-2074163D01*
X2299715Y-2078736D01*
X2277109Y-2078736D01*
X2263393Y-2074163D01*
X2254250Y-2069592D01*
X2245106Y-2060702D01*
X2240534Y-2046986D01*
X2240534Y-2015236D01*
X2318004Y-2108707D02*
G01*
X2322575Y-2117852D01*
X2336038Y-2131568D01*
X2240534Y-2131568D01*
X2134615Y-1873250D02*
G01*
X2039111Y-1873250D01*
X2134615Y-1841500D02*
G01*
X2134615Y-1905254D01*
X2134615Y-1980692D02*
G01*
X2070861Y-1935226D01*
X2070861Y-2003297D01*
X2134615Y-1980692D02*
G01*
X2039111Y-1980692D01*
X2134615Y-2060702D02*
G01*
X2130043Y-2046986D01*
X2116327Y-2037842D01*
X2093722Y-2033270D01*
X2080006Y-2033270D01*
X2057145Y-2037842D01*
X2043684Y-2046986D01*
X2039111Y-2060702D01*
X2039111Y-2069592D01*
X2043684Y-2083307D01*
X2057145Y-2092452D01*
X2080006Y-2097023D01*
X2093722Y-2097023D01*
X2116327Y-2092452D01*
X2130043Y-2083307D01*
X2134615Y-2069592D01*
X2134615Y-2060702D01*
X2134615Y-2172462D02*
G01*
X2070861Y-2126995D01*
X2070861Y-2195068D01*
X2134615Y-2172462D02*
G01*
X2039111Y-2172462D01*
X2116327Y-2225039D02*
G01*
X2120900Y-2234184D01*
X2134615Y-2247900D01*
X2039111Y-2247900D01*
X2134615Y-2305050D02*
G01*
X2130043Y-2291587D01*
X2116327Y-2282444D01*
X2093722Y-2277871D01*
X2080006Y-2277871D01*
X2057145Y-2282444D01*
X2043684Y-2291587D01*
X2039111Y-2305050D01*
X2039111Y-2314194D01*
X2043684Y-2327910D01*
X2057145Y-2337054D01*
X2080006Y-2341626D01*
X2093722Y-2341626D01*
X2116327Y-2337054D01*
X2130043Y-2327910D01*
X2134615Y-2314194D01*
X2134615Y-2305050D01*
X2134615Y-2380487D02*
G01*
X2134615Y-2430526D01*
X2098040Y-2403347D01*
X2098040Y-2417063D01*
X2093722Y-2425954D01*
X2089150Y-2430526D01*
X2075434Y-2435097D01*
X2066290Y-2435097D01*
X2052574Y-2430526D01*
X2043684Y-2421381D01*
X2039111Y-2407920D01*
X2039111Y-2394204D01*
X2043684Y-2380487D01*
X2048256Y-2376170D01*
X2057145Y-2371597D01*
X2134615Y-2528823D02*
G01*
X2039111Y-2483357D01*
X2134615Y-2465070D02*
G01*
X2134615Y-2528823D01*
X2134615Y-2585973D02*
G01*
X2130043Y-2572512D01*
X2116327Y-2563368D01*
X2093722Y-2558795D01*
X2080006Y-2558795D01*
X2057145Y-2563368D01*
X2043684Y-2572512D01*
X2039111Y-2585973D01*
X2039111Y-2595118D01*
X2043684Y-2608834D01*
X2057145Y-2617978D01*
X2080006Y-2622295D01*
X2093722Y-2622295D01*
X2116327Y-2617978D01*
X2130043Y-2608834D01*
X2134615Y-2595118D01*
X2134615Y-2585973D01*
X2134615Y-2697987D02*
G01*
X2070861Y-2652521D01*
X2070861Y-2720594D01*
X2134615Y-2697987D02*
G01*
X2039111Y-2697987D01*
X2116327Y-2750565D02*
G01*
X2120900Y-2759710D01*
X2134615Y-2773426D01*
X2039111Y-2773426D01*
X2080006Y-2803397D02*
G01*
X2080006Y-2885186D01*
X2134615Y-2942336D02*
G01*
X2130043Y-2928873D01*
X2116327Y-2919729D01*
X2093722Y-2915157D01*
X2080006Y-2915157D01*
X2057145Y-2919729D01*
X2043684Y-2928873D01*
X2039111Y-2942336D01*
X2039111Y-2951479D01*
X2043684Y-2965195D01*
X2057145Y-2974339D01*
X2080006Y-2978657D01*
X2093722Y-2978657D01*
X2116327Y-2974339D01*
X2130043Y-2965195D01*
X2134615Y-2951479D01*
X2134615Y-2942336D01*
X2134615Y-3036062D02*
G01*
X2130043Y-3022345D01*
X2116327Y-3013202D01*
X2093722Y-3008884D01*
X2080006Y-3008884D01*
X2057145Y-3013202D01*
X2043684Y-3022345D01*
X2039111Y-3036062D01*
X2039111Y-3045205D01*
X2043684Y-3058668D01*
X2057145Y-3067812D01*
X2080006Y-3072384D01*
X2093722Y-3072384D01*
X2116327Y-3067812D01*
X2130043Y-3058668D01*
X2134615Y-3045205D01*
X2134615Y-3036062D01*
X2134615Y-3129787D02*
G01*
X2130043Y-3116071D01*
X2116327Y-3106928D01*
X2093722Y-3102355D01*
X2080006Y-3102355D01*
X2057145Y-3106928D01*
X2043684Y-3116071D01*
X2039111Y-3129787D01*
X2039111Y-3138678D01*
X2043684Y-3152394D01*
X2057145Y-3161537D01*
X2080006Y-3166110D01*
X2093722Y-3166110D01*
X2116327Y-3161537D01*
X2130043Y-3152394D01*
X2134615Y-3138678D01*
X2134615Y-3129787D01*
X2348738Y-3822700D02*
G01*
X2253234Y-3822700D01*
X2253234Y-3822700D02*
G01*
X2253234Y-3877310D01*
X2348738Y-3907281D02*
G01*
X2253234Y-3907281D01*
X2348738Y-3907281D02*
G01*
X2348738Y-3966210D01*
X2303272Y-3907281D02*
G01*
X2303272Y-3943604D01*
X2253234Y-3907281D02*
G01*
X2253234Y-3966210D01*
X2348738Y-3996436D02*
G01*
X2253234Y-3996436D01*
X2348738Y-3996436D02*
G01*
X2348738Y-4028186D01*
X2344165Y-4041902D01*
X2335275Y-4050792D01*
X2326131Y-4055363D01*
X2312415Y-4059936D01*
X2289809Y-4059936D01*
X2276093Y-4055363D01*
X2266950Y-4050792D01*
X2257806Y-4041902D01*
X2253234Y-4028186D01*
X2253234Y-3996436D01*
X2326131Y-4094479D02*
G01*
X2330704Y-4094479D01*
X2339593Y-4099052D01*
X2344165Y-4103623D01*
X2348738Y-4112768D01*
X2348738Y-4130802D01*
X2344165Y-4139945D01*
X2339593Y-4144518D01*
X2330704Y-4149089D01*
X2321559Y-4149089D01*
X2312415Y-4144518D01*
X2298700Y-4135373D01*
X2253234Y-4089907D01*
X2253234Y-4153662D01*
X2147315Y-3854450D02*
G01*
X2051811Y-3854450D01*
X2147315Y-3822700D02*
G01*
X2147315Y-3886454D01*
X2147315Y-3961892D02*
G01*
X2083561Y-3916426D01*
X2083561Y-3984497D01*
X2147315Y-3961892D02*
G01*
X2051811Y-3961892D01*
X2147315Y-4041902D02*
G01*
X2142743Y-4028186D01*
X2129027Y-4019042D01*
X2106422Y-4014470D01*
X2092706Y-4014470D01*
X2069845Y-4019042D01*
X2056384Y-4028186D01*
X2051811Y-4041902D01*
X2051811Y-4050792D01*
X2056384Y-4064507D01*
X2069845Y-4073652D01*
X2092706Y-4078223D01*
X2106422Y-4078223D01*
X2129027Y-4073652D01*
X2142743Y-4064507D01*
X2147315Y-4050792D01*
X2147315Y-4041902D01*
X2147315Y-4153662D02*
G01*
X2083561Y-4108195D01*
X2083561Y-4176268D01*
X2147315Y-4153662D02*
G01*
X2051811Y-4153662D01*
X2129027Y-4206239D02*
G01*
X2133600Y-4215384D01*
X2147315Y-4229100D01*
X2051811Y-4229100D01*
X2147315Y-4286250D02*
G01*
X2142743Y-4272787D01*
X2129027Y-4263644D01*
X2106422Y-4259071D01*
X2092706Y-4259071D01*
X2069845Y-4263644D01*
X2056384Y-4272787D01*
X2051811Y-4286250D01*
X2051811Y-4295394D01*
X2056384Y-4309110D01*
X2069845Y-4318254D01*
X2092706Y-4322826D01*
X2106422Y-4322826D01*
X2129027Y-4318254D01*
X2142743Y-4309110D01*
X2147315Y-4295394D01*
X2147315Y-4286250D01*
X2147315Y-4361687D02*
G01*
X2147315Y-4411726D01*
X2110740Y-4384547D01*
X2110740Y-4398263D01*
X2106422Y-4407154D01*
X2101850Y-4411726D01*
X2088134Y-4416297D01*
X2078990Y-4416297D01*
X2065274Y-4411726D01*
X2056384Y-4402581D01*
X2051811Y-4389120D01*
X2051811Y-4375404D01*
X2056384Y-4361687D01*
X2060956Y-4357370D01*
X2069845Y-4352797D01*
X2147315Y-4510023D02*
G01*
X2051811Y-4464557D01*
X2147315Y-4446270D02*
G01*
X2147315Y-4510023D01*
X2147315Y-4567173D02*
G01*
X2142743Y-4553712D01*
X2129027Y-4544568D01*
X2106422Y-4539995D01*
X2092706Y-4539995D01*
X2069845Y-4544568D01*
X2056384Y-4553712D01*
X2051811Y-4567173D01*
X2051811Y-4576318D01*
X2056384Y-4590034D01*
X2069845Y-4599178D01*
X2092706Y-4603495D01*
X2106422Y-4603495D01*
X2129027Y-4599178D01*
X2142743Y-4590034D01*
X2147315Y-4576318D01*
X2147315Y-4567173D01*
X2147315Y-4679187D02*
G01*
X2083561Y-4633721D01*
X2083561Y-4701794D01*
X2147315Y-4679187D02*
G01*
X2051811Y-4679187D01*
X2129027Y-4731765D02*
G01*
X2133600Y-4740910D01*
X2147315Y-4754626D01*
X2051811Y-4754626D01*
X2092706Y-4784597D02*
G01*
X2092706Y-4866386D01*
X2147315Y-4923536D02*
G01*
X2142743Y-4910073D01*
X2129027Y-4900929D01*
X2106422Y-4896357D01*
X2092706Y-4896357D01*
X2069845Y-4900929D01*
X2056384Y-4910073D01*
X2051811Y-4923536D01*
X2051811Y-4932679D01*
X2056384Y-4946395D01*
X2069845Y-4955539D01*
X2092706Y-4959857D01*
X2106422Y-4959857D01*
X2129027Y-4955539D01*
X2142743Y-4946395D01*
X2147315Y-4932679D01*
X2147315Y-4923536D01*
X2147315Y-5017262D02*
G01*
X2142743Y-5003545D01*
X2129027Y-4994402D01*
X2106422Y-4990084D01*
X2092706Y-4990084D01*
X2069845Y-4994402D01*
X2056384Y-5003545D01*
X2051811Y-5017262D01*
X2051811Y-5026405D01*
X2056384Y-5039868D01*
X2069845Y-5049012D01*
X2092706Y-5053584D01*
X2106422Y-5053584D01*
X2129027Y-5049012D01*
X2142743Y-5039868D01*
X2147315Y-5026405D01*
X2147315Y-5017262D01*
X2147315Y-5110987D02*
G01*
X2142743Y-5097271D01*
X2129027Y-5088128D01*
X2106422Y-5083555D01*
X2092706Y-5083555D01*
X2069845Y-5088128D01*
X2056384Y-5097271D01*
X2051811Y-5110987D01*
X2051811Y-5119878D01*
X2056384Y-5133594D01*
X2069845Y-5142737D01*
X2092706Y-5147310D01*
X2106422Y-5147310D01*
X2129027Y-5142737D01*
X2142743Y-5133594D01*
X2147315Y-5119878D01*
X2147315Y-5110987D01*
X2433065Y-3061462D02*
G01*
X2433065Y-3134105D01*
X2428493Y-3147821D01*
X2423922Y-3152394D01*
X2414777Y-3156965D01*
X2405888Y-3156965D01*
X2396743Y-3152394D01*
X2392172Y-3147821D01*
X2387600Y-3134105D01*
X2387600Y-3124962D01*
X2526791Y-3074923D02*
G01*
X2517647Y-3066034D01*
X2503931Y-3061462D01*
X2485897Y-3061462D01*
X2472181Y-3066034D01*
X2463038Y-3074923D01*
X2463038Y-3084068D01*
X2467609Y-3093212D01*
X2472181Y-3097784D01*
X2481325Y-3102355D01*
X2508504Y-3111500D01*
X2517647Y-3115818D01*
X2522220Y-3120389D01*
X2526791Y-3129534D01*
X2526791Y-3143250D01*
X2517647Y-3152394D01*
X2503931Y-3156965D01*
X2485897Y-3156965D01*
X2472181Y-3152394D01*
X2463038Y-3143250D01*
X2588513Y-3061462D02*
G01*
X2588513Y-3156965D01*
X2556763Y-3061462D02*
G01*
X2620263Y-3061462D01*
X2788411Y-3084068D02*
G01*
X2783840Y-3074923D01*
X2774950Y-3066034D01*
X2765806Y-3061462D01*
X2747518Y-3061462D01*
X2738627Y-3066034D01*
X2729484Y-3074923D01*
X2724911Y-3084068D01*
X2720340Y-3097784D01*
X2720340Y-3120389D01*
X2724911Y-3134105D01*
X2729484Y-3143250D01*
X2738627Y-3152394D01*
X2747518Y-3156965D01*
X2765806Y-3156965D01*
X2774950Y-3152394D01*
X2783840Y-3143250D01*
X2788411Y-3134105D01*
X2841243Y-3093212D02*
G01*
X2832100Y-3097784D01*
X2822956Y-3106928D01*
X2818384Y-3120389D01*
X2818384Y-3129534D01*
X2822956Y-3143250D01*
X2832100Y-3152394D01*
X2841243Y-3156965D01*
X2854959Y-3156965D01*
X2863850Y-3152394D01*
X2872993Y-3143250D01*
X2877565Y-3129534D01*
X2877565Y-3120389D01*
X2872993Y-3106928D01*
X2863850Y-3097784D01*
X2854959Y-3093212D01*
X2841243Y-3093212D01*
X2907538Y-3061462D02*
G01*
X2907538Y-3156965D01*
X2937509Y-3061462D02*
G01*
X2937509Y-3156965D01*
X2972054Y-3134105D02*
G01*
X2967481Y-3138678D01*
X2972054Y-3143250D01*
X2976625Y-3138678D01*
X2972054Y-3134105D01*
X3076702Y-3061462D02*
G01*
X3076702Y-3156965D01*
X3076702Y-3061462D02*
G01*
X3117595Y-3061462D01*
X3131311Y-3066034D01*
X3135884Y-3070605D01*
X3140202Y-3079495D01*
X3140202Y-3088639D01*
X3135884Y-3097784D01*
X3131311Y-3102355D01*
X3117595Y-3106928D01*
X3076702Y-3106928D02*
G01*
X3117595Y-3106928D01*
X3131311Y-3111500D01*
X3135884Y-3115818D01*
X3140202Y-3124962D01*
X3140202Y-3138678D01*
X3135884Y-3147821D01*
X3131311Y-3152394D01*
X3117595Y-3156965D01*
X3076702Y-3156965D01*
X3179318Y-3061462D02*
G01*
X3229356Y-3061462D01*
X3202177Y-3097784D01*
X3215893Y-3097784D01*
X3224784Y-3102355D01*
X3229356Y-3106928D01*
X3233927Y-3120389D01*
X3233927Y-3129534D01*
X3229356Y-3143250D01*
X3220211Y-3152394D01*
X3206750Y-3156965D01*
X3193034Y-3156965D01*
X3179318Y-3152394D01*
X3174745Y-3147821D01*
X3170427Y-3138678D01*
X3263900Y-3061462D02*
G01*
X3263900Y-3156965D01*
X3263900Y-3061462D02*
G01*
X3304793Y-3061462D01*
X3318509Y-3066034D01*
X3323081Y-3070605D01*
X3327654Y-3079495D01*
X3327654Y-3088639D01*
X3323081Y-3097784D01*
X3318509Y-3102355D01*
X3304793Y-3106928D01*
X3263900Y-3106928D02*
G01*
X3304793Y-3106928D01*
X3318509Y-3111500D01*
X3323081Y-3115818D01*
X3327654Y-3124962D01*
X3327654Y-3138678D01*
X3323081Y-3147821D01*
X3318509Y-3152394D01*
X3304793Y-3156965D01*
X3263900Y-3156965D01*
X3357625Y-3115818D02*
G01*
X3439413Y-3115818D01*
X3469386Y-3061462D02*
G01*
X3533140Y-3156965D01*
X3533140Y-3061462D02*
G01*
X3469386Y-3156965D01*
X3563111Y-3061462D02*
G01*
X3563111Y-3156965D01*
X3626611Y-3061462D02*
G01*
X3626611Y-3156965D01*
X3563111Y-3106928D02*
G01*
X3626611Y-3106928D01*
X3656584Y-3115818D02*
G01*
X3738625Y-3115818D01*
X3804920Y-3061462D02*
G01*
X3768597Y-3156965D01*
X3804920Y-3061462D02*
G01*
X3841241Y-3156965D01*
X3782059Y-3124962D02*
G01*
X3827525Y-3124962D01*
X1152906Y-108712D02*
G01*
X1144015Y-113284D01*
X1134872Y-122428D01*
X1130300Y-135889D01*
X1130300Y-145034D01*
X1134872Y-158750D01*
X1144015Y-167894D01*
X1152906Y-172465D01*
X1166622Y-172465D01*
X1175765Y-167894D01*
X1184909Y-158750D01*
X1189481Y-145034D01*
X1189481Y-135889D01*
X1184909Y-122428D01*
X1175765Y-113284D01*
X1166622Y-108712D01*
X1152906Y-108712D01*
X1219454Y-108712D02*
G01*
X1219454Y-204215D01*
X1219454Y-122428D02*
G01*
X1228597Y-113284D01*
X1237488Y-108712D01*
X1251204Y-108712D01*
X1260347Y-113284D01*
X1269491Y-122428D01*
X1273809Y-135889D01*
X1273809Y-145034D01*
X1269491Y-158750D01*
X1260347Y-167894D01*
X1251204Y-172465D01*
X1237488Y-172465D01*
X1228597Y-167894D01*
X1219454Y-158750D01*
X1317497Y-76962D02*
G01*
X1317497Y-154178D01*
X1322070Y-167894D01*
X1331213Y-172465D01*
X1340358Y-172465D01*
X1304036Y-108712D02*
G01*
X1335786Y-108712D01*
X1392936Y-108712D02*
G01*
X1384045Y-113284D01*
X1374902Y-122428D01*
X1370329Y-135889D01*
X1370329Y-145034D01*
X1374902Y-158750D01*
X1384045Y-167894D01*
X1392936Y-172465D01*
X1406652Y-172465D01*
X1415795Y-167894D01*
X1424940Y-158750D01*
X1429511Y-145034D01*
X1429511Y-135889D01*
X1424940Y-122428D01*
X1415795Y-113284D01*
X1406652Y-108712D01*
X1392936Y-108712D01*
X1459484Y-108712D02*
G01*
X1459484Y-204215D01*
X1459484Y-122428D02*
G01*
X1468374Y-113284D01*
X1477518Y-108712D01*
X1491234Y-108712D01*
X1500377Y-113284D01*
X1509268Y-122428D01*
X1513840Y-135889D01*
X1513840Y-145034D01*
X1509268Y-158750D01*
X1500377Y-167894D01*
X1491234Y-172465D01*
X1477518Y-172465D01*
X1468374Y-167894D01*
X1459484Y-158750D01*
X1543811Y-76962D02*
G01*
X1543811Y-172465D01*
X1543811Y-127000D02*
G01*
X1557527Y-113284D01*
X1566672Y-108712D01*
X1580388Y-108712D01*
X1589277Y-113284D01*
X1593850Y-127000D01*
X1593850Y-172465D01*
X1628393Y-108712D02*
G01*
X1655825Y-172465D01*
X1683004Y-108712D02*
G01*
X1655825Y-172465D01*
X1646681Y-190500D01*
X1637538Y-199644D01*
X1628393Y-204215D01*
X1623822Y-204215D01*
X1763013Y-122428D02*
G01*
X1758441Y-113284D01*
X1744725Y-108712D01*
X1731263Y-108712D01*
X1717547Y-113284D01*
X1712975Y-122428D01*
X1717547Y-131318D01*
X1726691Y-135889D01*
X1749297Y-140462D01*
X1758441Y-145034D01*
X1763013Y-154178D01*
X1763013Y-158750D01*
X1758441Y-167894D01*
X1744725Y-172465D01*
X1731263Y-172465D01*
X1717547Y-167894D01*
X1712975Y-158750D01*
X1917445Y-122428D02*
G01*
X1908556Y-113284D01*
X1899411Y-108712D01*
X1885695Y-108712D01*
X1876552Y-113284D01*
X1867661Y-122428D01*
X1863090Y-135889D01*
X1863090Y-145034D01*
X1867661Y-158750D01*
X1876552Y-167894D01*
X1885695Y-172465D01*
X1899411Y-172465D01*
X1908556Y-167894D01*
X1917445Y-158750D01*
X1970277Y-108712D02*
G01*
X1961134Y-113284D01*
X1951990Y-122428D01*
X1947672Y-135889D01*
X1947672Y-145034D01*
X1951990Y-158750D01*
X1961134Y-167894D01*
X1970277Y-172465D01*
X1983993Y-172465D01*
X1993138Y-167894D01*
X2002027Y-158750D01*
X2006600Y-145034D01*
X2006600Y-135889D01*
X2002027Y-122428D01*
X1993138Y-113284D01*
X1983993Y-108712D01*
X1970277Y-108712D01*
X2036572Y-108712D02*
G01*
X2036572Y-172465D01*
X2036572Y-127000D02*
G01*
X2050288Y-113284D01*
X2059431Y-108712D01*
X2073147Y-108712D01*
X2082038Y-113284D01*
X2086609Y-127000D01*
X2086609Y-172465D01*
X2086609Y-127000D02*
G01*
X2100325Y-113284D01*
X2109470Y-108712D01*
X2122931Y-108712D01*
X2132075Y-113284D01*
X2136647Y-127000D01*
X2136647Y-172465D01*
X2166620Y-108712D02*
G01*
X2166620Y-172465D01*
X2166620Y-127000D02*
G01*
X2180336Y-113284D01*
X2189479Y-108712D01*
X2202941Y-108712D01*
X2212086Y-113284D01*
X2216658Y-127000D01*
X2216658Y-172465D01*
X2216658Y-127000D02*
G01*
X2230374Y-113284D01*
X2239263Y-108712D01*
X2252979Y-108712D01*
X2262124Y-113284D01*
X2266695Y-127000D01*
X2266695Y-172465D01*
X2301240Y-149605D02*
G01*
X2296668Y-154178D01*
X2301240Y-158750D01*
X2305811Y-154178D01*
X2301240Y-149605D01*
X2405634Y-108712D02*
G01*
X2433065Y-172465D01*
X2460243Y-108712D02*
G01*
X2433065Y-172465D01*
X2517647Y-76962D02*
G01*
X2503931Y-81534D01*
X2494788Y-94995D01*
X2490215Y-117855D01*
X2490215Y-131318D01*
X2494788Y-154178D01*
X2503931Y-167894D01*
X2517647Y-172465D01*
X2526538Y-172465D01*
X2540254Y-167894D01*
X2549397Y-154178D01*
X2553970Y-131318D01*
X2553970Y-117855D01*
X2549397Y-94995D01*
X2540254Y-81534D01*
X2526538Y-76962D01*
X2517647Y-76962D01*
X2588513Y-149605D02*
G01*
X2583941Y-154178D01*
X2588513Y-158750D01*
X2593086Y-154178D01*
X2588513Y-149605D01*
X2627629Y-99568D02*
G01*
X2627629Y-94995D01*
X2632202Y-86105D01*
X2636774Y-81534D01*
X2645663Y-76962D01*
X2663952Y-76962D01*
X2673095Y-81534D01*
X2677668Y-86105D01*
X2682240Y-94995D01*
X2682240Y-104139D01*
X2677668Y-113284D01*
X2668524Y-127000D01*
X2623058Y-172465D01*
X2686558Y-172465D01*
X1442211Y-260350D02*
G01*
X1433068Y-269494D01*
X1423924Y-282955D01*
X1414779Y-301244D01*
X1410208Y-323850D01*
X1410208Y-342137D01*
X1414779Y-364744D01*
X1423924Y-383031D01*
X1433068Y-396747D01*
X1442211Y-405637D01*
X1472184Y-278384D02*
G01*
X1472184Y-373887D01*
X1472184Y-323850D02*
G01*
X1481327Y-314960D01*
X1490218Y-310387D01*
X1503934Y-310387D01*
X1513077Y-314960D01*
X1522222Y-323850D01*
X1526540Y-337565D01*
X1526540Y-346710D01*
X1522222Y-360426D01*
X1513077Y-369315D01*
X1503934Y-373887D01*
X1490218Y-373887D01*
X1481327Y-369315D01*
X1472184Y-360426D01*
X1579372Y-310387D02*
G01*
X1570227Y-314960D01*
X1561084Y-323850D01*
X1556765Y-337565D01*
X1556765Y-346710D01*
X1561084Y-360426D01*
X1570227Y-369315D01*
X1579372Y-373887D01*
X1593088Y-373887D01*
X1602231Y-369315D01*
X1611122Y-360426D01*
X1615693Y-346710D01*
X1615693Y-337565D01*
X1611122Y-323850D01*
X1602231Y-314960D01*
X1593088Y-310387D01*
X1579372Y-310387D01*
X1659381Y-278384D02*
G01*
X1659381Y-355854D01*
X1663954Y-369315D01*
X1673097Y-373887D01*
X1682241Y-373887D01*
X1645665Y-310387D02*
G01*
X1677670Y-310387D01*
X1725675Y-278384D02*
G01*
X1725675Y-355854D01*
X1730247Y-369315D01*
X1739391Y-373887D01*
X1748536Y-373887D01*
X1712213Y-310387D02*
G01*
X1743963Y-310387D01*
X1801113Y-310387D02*
G01*
X1792224Y-314960D01*
X1783079Y-323850D01*
X1778508Y-337565D01*
X1778508Y-346710D01*
X1783079Y-360426D01*
X1792224Y-369315D01*
X1801113Y-373887D01*
X1814829Y-373887D01*
X1823974Y-369315D01*
X1833118Y-360426D01*
X1837690Y-346710D01*
X1837690Y-337565D01*
X1833118Y-323850D01*
X1823974Y-314960D01*
X1814829Y-310387D01*
X1801113Y-310387D01*
X1867661Y-310387D02*
G01*
X1867661Y-373887D01*
X1867661Y-328421D02*
G01*
X1881124Y-314960D01*
X1890268Y-310387D01*
X1903984Y-310387D01*
X1913127Y-314960D01*
X1917445Y-328421D01*
X1917445Y-373887D01*
X1917445Y-328421D02*
G01*
X1931161Y-314960D01*
X1940306Y-310387D01*
X1954022Y-310387D01*
X1962911Y-314960D01*
X1967484Y-328421D01*
X1967484Y-373887D01*
X2067559Y-310387D02*
G01*
X2067559Y-405637D01*
X2067559Y-323850D02*
G01*
X2076704Y-314960D01*
X2085847Y-310387D01*
X2099309Y-310387D01*
X2108454Y-314960D01*
X2117597Y-323850D01*
X2122170Y-337565D01*
X2122170Y-346710D01*
X2117597Y-360426D01*
X2108454Y-369315D01*
X2099309Y-373887D01*
X2085847Y-373887D01*
X2076704Y-369315D01*
X2067559Y-360426D01*
X2206752Y-323850D02*
G01*
X2197608Y-314960D01*
X2188463Y-310387D01*
X2174747Y-310387D01*
X2165858Y-314960D01*
X2156713Y-323850D01*
X2152141Y-337565D01*
X2152141Y-346710D01*
X2156713Y-360426D01*
X2165858Y-369315D01*
X2174747Y-373887D01*
X2188463Y-373887D01*
X2197608Y-369315D01*
X2206752Y-360426D01*
X2236724Y-278384D02*
G01*
X2236724Y-373887D01*
X2236724Y-323850D02*
G01*
X2245868Y-314960D01*
X2254758Y-310387D01*
X2268474Y-310387D01*
X2277618Y-314960D01*
X2286761Y-323850D01*
X2291079Y-337565D01*
X2291079Y-346710D01*
X2286761Y-360426D01*
X2277618Y-369315D01*
X2268474Y-373887D01*
X2254758Y-373887D01*
X2245868Y-369315D01*
X2236724Y-360426D01*
X2321306Y-260350D02*
G01*
X2330195Y-269494D01*
X2339340Y-282955D01*
X2348484Y-301244D01*
X2353056Y-323850D01*
X2353056Y-342137D01*
X2348484Y-364744D01*
X2339340Y-383031D01*
X2330195Y-396747D01*
X2321306Y-405637D01*
X3330193Y-928623D02*
G01*
X3330193Y-1010665D01*
X3289300Y-969518D02*
G01*
X3371088Y-969518D01*
X3543300Y-969518D02*
G01*
X3625088Y-969518D01*
X546100Y-673862D02*
G01*
X546100Y-769365D01*
X546100Y-769365D02*
G01*
X600710Y-769365D01*
X630681Y-673862D02*
G01*
X630681Y-769365D01*
X630681Y-673862D02*
G01*
X689609Y-673862D01*
X630681Y-719328D02*
G01*
X667004Y-719328D01*
X630681Y-769365D02*
G01*
X689609Y-769365D01*
X719836Y-673862D02*
G01*
X719836Y-769365D01*
X719836Y-673862D02*
G01*
X751586Y-673862D01*
X765302Y-678434D01*
X774191Y-687323D01*
X778763Y-696468D01*
X783336Y-710184D01*
X783336Y-732789D01*
X778763Y-746505D01*
X774191Y-755650D01*
X765302Y-764794D01*
X751586Y-769365D01*
X719836Y-769365D01*
X813308Y-691895D02*
G01*
X822452Y-687323D01*
X836168Y-673862D01*
X836168Y-769365D01*
X304800Y-933195D02*
G01*
X313944Y-928623D01*
X327405Y-915162D01*
X327405Y-1010665D01*
X550671Y-937768D02*
G01*
X550671Y-933195D01*
X555244Y-924305D01*
X559815Y-919734D01*
X568705Y-915162D01*
X586994Y-915162D01*
X596137Y-919734D01*
X600710Y-924305D01*
X605281Y-933195D01*
X605281Y-942339D01*
X600710Y-951484D01*
X591565Y-965200D01*
X546100Y-1010665D01*
X609854Y-1010665D01*
X796543Y-915162D02*
G01*
X846581Y-915162D01*
X819150Y-951484D01*
X832865Y-951484D01*
X842009Y-956055D01*
X846581Y-960628D01*
X851154Y-974089D01*
X851154Y-983234D01*
X846581Y-996950D01*
X837438Y-1006094D01*
X823722Y-1010665D01*
X810006Y-1010665D01*
X796543Y-1006094D01*
X791972Y-1001521D01*
X787400Y-992378D01*
X1074165Y-915162D02*
G01*
X1028700Y-978662D01*
X1096772Y-978662D01*
X1074165Y-915162D02*
G01*
X1074165Y-1010665D01*
X1543050Y-674115D02*
G01*
X1543050Y-769365D01*
X1543050Y-769365D02*
G01*
X1597659Y-769365D01*
X1627631Y-674115D02*
G01*
X1627631Y-769365D01*
X1627631Y-674115D02*
G01*
X1686813Y-674115D01*
X1627631Y-719328D02*
G01*
X1663954Y-719328D01*
X1627631Y-769365D02*
G01*
X1686813Y-769365D01*
X1716786Y-674115D02*
G01*
X1716786Y-769365D01*
X1716786Y-674115D02*
G01*
X1748536Y-674115D01*
X1762252Y-678434D01*
X1771395Y-687578D01*
X1775713Y-696721D01*
X1780286Y-710437D01*
X1780286Y-733044D01*
X1775713Y-746760D01*
X1771395Y-755904D01*
X1762252Y-764794D01*
X1748536Y-769365D01*
X1716786Y-769365D01*
X1814829Y-696721D02*
G01*
X1814829Y-692150D01*
X1819402Y-683005D01*
X1823974Y-678434D01*
X1833118Y-674115D01*
X1851406Y-674115D01*
X1860295Y-678434D01*
X1864868Y-683005D01*
X1869440Y-692150D01*
X1869440Y-701294D01*
X1864868Y-710437D01*
X1855724Y-723900D01*
X1810258Y-769365D01*
X1874011Y-769365D01*
X1301800Y-933396D02*
G01*
X1310944Y-928824D01*
X1324406Y-915362D01*
X1324406Y-1010866D01*
X1547672Y-937968D02*
G01*
X1547672Y-933396D01*
X1552244Y-924506D01*
X1556816Y-919934D01*
X1565706Y-915362D01*
X1583994Y-915362D01*
X1593138Y-919934D01*
X1597710Y-924506D01*
X1602282Y-933396D01*
X1602282Y-942540D01*
X1597710Y-951684D01*
X1588566Y-965400D01*
X1543100Y-1010866D01*
X1606854Y-1010866D01*
X1793544Y-915362D02*
G01*
X1843582Y-915362D01*
X1816150Y-951684D01*
X1829866Y-951684D01*
X1839010Y-956256D01*
X1843582Y-960828D01*
X1848154Y-974290D01*
X1848154Y-983434D01*
X1843582Y-997150D01*
X1834438Y-1006294D01*
X1820722Y-1010866D01*
X1807006Y-1010866D01*
X1793544Y-1006294D01*
X1788972Y-1001722D01*
X1784400Y-992578D01*
X2071166Y-915362D02*
G01*
X2025700Y-978862D01*
X2093772Y-978862D01*
X2071166Y-915362D02*
G01*
X2071166Y-1010866D01*
X63500Y-1898395D02*
G01*
X72644Y-1893823D01*
X86105Y-1880362D01*
X86105Y-1975865D01*
X144271Y-1750568D02*
G01*
X144271Y-1745995D01*
X148844Y-1737105D01*
X153415Y-1732534D01*
X162305Y-1727962D01*
X180594Y-1727962D01*
X189737Y-1732534D01*
X194310Y-1737105D01*
X198881Y-1745995D01*
X198881Y-1755139D01*
X194310Y-1764284D01*
X185165Y-1778000D01*
X139700Y-1823465D01*
X203454Y-1823465D01*
X301244Y-1727962D02*
G01*
X351281Y-1727962D01*
X323850Y-1764284D01*
X337565Y-1764284D01*
X346710Y-1768855D01*
X351281Y-1773428D01*
X355854Y-1786889D01*
X355854Y-1796034D01*
X351281Y-1809750D01*
X342137Y-1818894D01*
X328421Y-1823465D01*
X314705Y-1823465D01*
X301244Y-1818894D01*
X296671Y-1814321D01*
X292100Y-1805178D01*
X426465Y-1867662D02*
G01*
X381000Y-1931162D01*
X449071Y-1931162D01*
X426465Y-1867662D02*
G01*
X426465Y-1963165D01*
X76200Y-3828795D02*
G01*
X85344Y-3824223D01*
X98805Y-3810762D01*
X98805Y-3906265D01*
X156971Y-3680968D02*
G01*
X156971Y-3676395D01*
X161544Y-3667505D01*
X166115Y-3662934D01*
X175005Y-3658362D01*
X193294Y-3658362D01*
X202437Y-3662934D01*
X207010Y-3667505D01*
X211581Y-3676395D01*
X211581Y-3685539D01*
X207010Y-3694684D01*
X197865Y-3708400D01*
X152400Y-3753865D01*
X216154Y-3753865D01*
X313944Y-3658362D02*
G01*
X363981Y-3658362D01*
X336550Y-3694684D01*
X350265Y-3694684D01*
X359410Y-3699255D01*
X363981Y-3703828D01*
X368554Y-3717289D01*
X368554Y-3726434D01*
X363981Y-3740150D01*
X354837Y-3749294D01*
X341121Y-3753865D01*
X327405Y-3753865D01*
X313944Y-3749294D01*
X309371Y-3744721D01*
X304800Y-3735578D01*
X439165Y-3798062D02*
G01*
X393700Y-3861562D01*
X461771Y-3861562D01*
X439165Y-3798062D02*
G01*
X439165Y-3893565D01*
X3507993Y-2414523D02*
G01*
X3507993Y-2496565D01*
X3467100Y-2455418D02*
G01*
X3548888Y-2455418D01*
X3467100Y-2214118D02*
G01*
X3548888Y-2214118D01*
X3454400Y-2686812D02*
G01*
X3454400Y-2750565D01*
X3454400Y-2705100D02*
G01*
X3468115Y-2691384D01*
X3477006Y-2686812D01*
X3490722Y-2686812D01*
X3499865Y-2691384D01*
X3504438Y-2705100D01*
X3504438Y-2750565D01*
X3589020Y-2700528D02*
G01*
X3579875Y-2691384D01*
X3570731Y-2686812D01*
X3557015Y-2686812D01*
X3548125Y-2691384D01*
X3538981Y-2700528D01*
X3534409Y-2713989D01*
X3534409Y-2723134D01*
X3538981Y-2736850D01*
X3548125Y-2745994D01*
X3557015Y-2750565D01*
X3570731Y-2750565D01*
X3579875Y-2745994D01*
X3589020Y-2736850D01*
X2349500Y-686562D02*
G01*
X2349500Y-782065D01*
X2349500Y-782065D02*
G01*
X2404109Y-782065D01*
X2434081Y-686562D02*
G01*
X2434081Y-782065D01*
X2434081Y-686562D02*
G01*
X2493009Y-686562D01*
X2434081Y-732028D02*
G01*
X2470404Y-732028D01*
X2434081Y-782065D02*
G01*
X2493009Y-782065D01*
X2523236Y-686562D02*
G01*
X2523236Y-782065D01*
X2523236Y-686562D02*
G01*
X2554986Y-686562D01*
X2568702Y-691134D01*
X2577591Y-700023D01*
X2582163Y-709168D01*
X2586736Y-722884D01*
X2586736Y-745489D01*
X2582163Y-759205D01*
X2577591Y-768350D01*
X2568702Y-777494D01*
X2554986Y-782065D01*
X2523236Y-782065D01*
X2625852Y-686562D02*
G01*
X2675890Y-686562D01*
X2648711Y-722884D01*
X2662174Y-722884D01*
X2671318Y-727455D01*
X2675890Y-732028D01*
X2680461Y-745489D01*
X2680461Y-754634D01*
X2675890Y-768350D01*
X2666745Y-777494D01*
X2653029Y-782065D01*
X2639568Y-782065D01*
X2625852Y-777494D01*
X2621279Y-772921D01*
X2616708Y-763778D01*
X2792222Y-668273D02*
G01*
X2710434Y-813815D01*
X2822193Y-686562D02*
G01*
X2822193Y-782065D01*
X2822193Y-686562D02*
G01*
X2858515Y-782065D01*
X2894838Y-686562D02*
G01*
X2858515Y-782065D01*
X2894838Y-686562D02*
G01*
X2894838Y-782065D01*
X2925063Y-686562D02*
G01*
X2929381Y-691134D01*
X2933954Y-686562D01*
X2929381Y-681989D01*
X2925063Y-686562D01*
X2929381Y-718312D02*
G01*
X2929381Y-782065D01*
X3013963Y-732028D02*
G01*
X3009391Y-722884D01*
X2995929Y-718312D01*
X2982213Y-718312D01*
X2968497Y-722884D01*
X2963925Y-732028D01*
X2968497Y-740918D01*
X2977641Y-745489D01*
X3000502Y-750062D01*
X3009391Y-754634D01*
X3013963Y-763778D01*
X3013963Y-768350D01*
X3009391Y-777494D01*
X2995929Y-782065D01*
X2982213Y-782065D01*
X2968497Y-777494D01*
X2963925Y-768350D01*
X3098545Y-732028D02*
G01*
X3089402Y-722884D01*
X3080511Y-718312D01*
X3066795Y-718312D01*
X3057652Y-722884D01*
X3048508Y-732028D01*
X3043936Y-745489D01*
X3043936Y-754634D01*
X3048508Y-768350D01*
X3057652Y-777494D01*
X3066795Y-782065D01*
X3080511Y-782065D01*
X3089402Y-777494D01*
X3098545Y-768350D01*
X3093465Y-915159D02*
G01*
X3048000Y-978659D01*
X3116072Y-978659D01*
X3093465Y-915159D02*
G01*
X3093465Y-1010663D01*
X2815843Y-915159D02*
G01*
X2865881Y-915159D01*
X2838450Y-951481D01*
X2852165Y-951481D01*
X2861309Y-956053D01*
X2865881Y-960625D01*
X2870454Y-974087D01*
X2870454Y-983231D01*
X2865881Y-996947D01*
X2856738Y-1006091D01*
X2843022Y-1010663D01*
X2829306Y-1010663D01*
X2815843Y-1006091D01*
X2811272Y-1001519D01*
X2806700Y-992375D01*
X2324100Y-933193D02*
G01*
X2333243Y-928621D01*
X2346706Y-915159D01*
X2346706Y-1010663D01*
X2569972Y-937765D02*
G01*
X2569972Y-933193D01*
X2574543Y-924303D01*
X2579115Y-919731D01*
X2588006Y-915159D01*
X2606293Y-915159D01*
X2615438Y-919731D01*
X2620009Y-924303D01*
X2624581Y-933193D01*
X2624581Y-942337D01*
X2620009Y-951481D01*
X2610865Y-965197D01*
X2565400Y-1010663D01*
X2629154Y-1010663D01*
X439165Y-5753862D02*
G01*
X393700Y-5817362D01*
X461771Y-5817362D01*
X439165Y-5753862D02*
G01*
X439165Y-5849365D01*
X313944Y-5614162D02*
G01*
X363981Y-5614162D01*
X336550Y-5650484D01*
X350265Y-5650484D01*
X359410Y-5655055D01*
X363981Y-5659628D01*
X368554Y-5673089D01*
X368554Y-5682234D01*
X363981Y-5695950D01*
X354837Y-5705094D01*
X341121Y-5709665D01*
X327405Y-5709665D01*
X313944Y-5705094D01*
X309371Y-5700521D01*
X304800Y-5691378D01*
X156971Y-5636768D02*
G01*
X156971Y-5632195D01*
X161544Y-5623305D01*
X166115Y-5618734D01*
X175005Y-5614162D01*
X193294Y-5614162D01*
X202437Y-5618734D01*
X207010Y-5623305D01*
X211581Y-5632195D01*
X211581Y-5641339D01*
X207010Y-5650484D01*
X197865Y-5664200D01*
X152400Y-5709665D01*
X216154Y-5709665D01*
X76200Y-5784595D02*
G01*
X85344Y-5780023D01*
X98805Y-5766562D01*
X98805Y-5862065D01*
X2336038Y-5803900D02*
G01*
X2240534Y-5803900D01*
X2240534Y-5803900D02*
G01*
X2240534Y-5858510D01*
X2336038Y-5888481D02*
G01*
X2240534Y-5888481D01*
X2336038Y-5888481D02*
G01*
X2336038Y-5947410D01*
X2290572Y-5888481D02*
G01*
X2290572Y-5924804D01*
X2240534Y-5888481D02*
G01*
X2240534Y-5947410D01*
X2336038Y-5977636D02*
G01*
X2240534Y-5977636D01*
X2336038Y-5977636D02*
G01*
X2336038Y-6009386D01*
X2331465Y-6023102D01*
X2322575Y-6031992D01*
X2313431Y-6036563D01*
X2299715Y-6041136D01*
X2277109Y-6041136D01*
X2263393Y-6036563D01*
X2254250Y-6031992D01*
X2245106Y-6023102D01*
X2240534Y-6009386D01*
X2240534Y-5977636D01*
X2336038Y-6080252D02*
G01*
X2336038Y-6130289D01*
X2299715Y-6103112D01*
X2299715Y-6116573D01*
X2295143Y-6125718D01*
X2290572Y-6130289D01*
X2277109Y-6134862D01*
X2267965Y-6134862D01*
X2254250Y-6130289D01*
X2245106Y-6121145D01*
X2240534Y-6107429D01*
X2240534Y-6093968D01*
X2245106Y-6080252D01*
X2249677Y-6075679D01*
X2258822Y-6071107D01*
X2354325Y-6246621D02*
G01*
X2208784Y-6164834D01*
X2336038Y-6276594D02*
G01*
X2240534Y-6276594D01*
X2336038Y-6276594D02*
G01*
X2240534Y-6312915D01*
X2336038Y-6349237D02*
G01*
X2240534Y-6312915D01*
X2336038Y-6349237D02*
G01*
X2240534Y-6349237D01*
X2336038Y-6379463D02*
G01*
X2331465Y-6383781D01*
X2336038Y-6388354D01*
X2340609Y-6383781D01*
X2336038Y-6379463D01*
X2304288Y-6383781D02*
G01*
X2240534Y-6383781D01*
X2290572Y-6468363D02*
G01*
X2299715Y-6463792D01*
X2304288Y-6450329D01*
X2304288Y-6436613D01*
X2299715Y-6422897D01*
X2290572Y-6418326D01*
X2281681Y-6422897D01*
X2277109Y-6432042D01*
X2272538Y-6454902D01*
X2267965Y-6463792D01*
X2258822Y-6468363D01*
X2254250Y-6468363D01*
X2245106Y-6463792D01*
X2240534Y-6450329D01*
X2240534Y-6436613D01*
X2245106Y-6422897D01*
X2254250Y-6418326D01*
X2290572Y-6552945D02*
G01*
X2299715Y-6543802D01*
X2304288Y-6534912D01*
X2304288Y-6521195D01*
X2299715Y-6512052D01*
X2290572Y-6502907D01*
X2277109Y-6498336D01*
X2267965Y-6498336D01*
X2254250Y-6502907D01*
X2245106Y-6512052D01*
X2240534Y-6521195D01*
X2240534Y-6534912D01*
X2245106Y-6543802D01*
X2254250Y-6552945D01*
X2134615Y-5835650D02*
G01*
X2039111Y-5835650D01*
X2134615Y-5803900D02*
G01*
X2134615Y-5867654D01*
X2134615Y-5943092D02*
G01*
X2070861Y-5897626D01*
X2070861Y-5965697D01*
X2134615Y-5943092D02*
G01*
X2039111Y-5943092D01*
X2134615Y-6023102D02*
G01*
X2130043Y-6009386D01*
X2116327Y-6000242D01*
X2093722Y-5995670D01*
X2080006Y-5995670D01*
X2057145Y-6000242D01*
X2043684Y-6009386D01*
X2039111Y-6023102D01*
X2039111Y-6031992D01*
X2043684Y-6045707D01*
X2057145Y-6054852D01*
X2080006Y-6059423D01*
X2093722Y-6059423D01*
X2116327Y-6054852D01*
X2130043Y-6045707D01*
X2134615Y-6031992D01*
X2134615Y-6023102D01*
X2134615Y-6134862D02*
G01*
X2070861Y-6089395D01*
X2070861Y-6157468D01*
X2134615Y-6134862D02*
G01*
X2039111Y-6134862D01*
X2116327Y-6187439D02*
G01*
X2120900Y-6196584D01*
X2134615Y-6210300D01*
X2039111Y-6210300D01*
X2134615Y-6267450D02*
G01*
X2130043Y-6253987D01*
X2116327Y-6244844D01*
X2093722Y-6240271D01*
X2080006Y-6240271D01*
X2057145Y-6244844D01*
X2043684Y-6253987D01*
X2039111Y-6267450D01*
X2039111Y-6276594D01*
X2043684Y-6290310D01*
X2057145Y-6299454D01*
X2080006Y-6304026D01*
X2093722Y-6304026D01*
X2116327Y-6299454D01*
X2130043Y-6290310D01*
X2134615Y-6276594D01*
X2134615Y-6267450D01*
X2134615Y-6342887D02*
G01*
X2134615Y-6392926D01*
X2098040Y-6365747D01*
X2098040Y-6379463D01*
X2093722Y-6388354D01*
X2089150Y-6392926D01*
X2075434Y-6397497D01*
X2066290Y-6397497D01*
X2052574Y-6392926D01*
X2043684Y-6383781D01*
X2039111Y-6370320D01*
X2039111Y-6356604D01*
X2043684Y-6342887D01*
X2048256Y-6338570D01*
X2057145Y-6333997D01*
X2134615Y-6491223D02*
G01*
X2039111Y-6445757D01*
X2134615Y-6427470D02*
G01*
X2134615Y-6491223D01*
X2134615Y-6548373D02*
G01*
X2130043Y-6534912D01*
X2116327Y-6525768D01*
X2093722Y-6521195D01*
X2080006Y-6521195D01*
X2057145Y-6525768D01*
X2043684Y-6534912D01*
X2039111Y-6548373D01*
X2039111Y-6557518D01*
X2043684Y-6571234D01*
X2057145Y-6580378D01*
X2080006Y-6584695D01*
X2093722Y-6584695D01*
X2116327Y-6580378D01*
X2130043Y-6571234D01*
X2134615Y-6557518D01*
X2134615Y-6548373D01*
X2134615Y-6660387D02*
G01*
X2070861Y-6614921D01*
X2070861Y-6682994D01*
X2134615Y-6660387D02*
G01*
X2039111Y-6660387D01*
X2116327Y-6712965D02*
G01*
X2120900Y-6722110D01*
X2134615Y-6735826D01*
X2039111Y-6735826D01*
X2080006Y-6765797D02*
G01*
X2080006Y-6847586D01*
X2134615Y-6904736D02*
G01*
X2130043Y-6891273D01*
X2116327Y-6882129D01*
X2093722Y-6877558D01*
X2080006Y-6877558D01*
X2057145Y-6882129D01*
X2043684Y-6891273D01*
X2039111Y-6904736D01*
X2039111Y-6913879D01*
X2043684Y-6927595D01*
X2057145Y-6936739D01*
X2080006Y-6941058D01*
X2093722Y-6941058D01*
X2116327Y-6936739D01*
X2130043Y-6927595D01*
X2134615Y-6913879D01*
X2134615Y-6904736D01*
X2134615Y-6998462D02*
G01*
X2130043Y-6984745D01*
X2116327Y-6975602D01*
X2093722Y-6971284D01*
X2080006Y-6971284D01*
X2057145Y-6975602D01*
X2043684Y-6984745D01*
X2039111Y-6998462D01*
X2039111Y-7007605D01*
X2043684Y-7021068D01*
X2057145Y-7030212D01*
X2080006Y-7034784D01*
X2093722Y-7034784D01*
X2116327Y-7030212D01*
X2130043Y-7021068D01*
X2134615Y-7007605D01*
X2134615Y-6998462D01*
X2134615Y-7092187D02*
G01*
X2130043Y-7078471D01*
X2116327Y-7069328D01*
X2093722Y-7064755D01*
X2080006Y-7064755D01*
X2057145Y-7069328D01*
X2043684Y-7078471D01*
X2039111Y-7092187D01*
X2039111Y-7101078D01*
X2043684Y-7114794D01*
X2057145Y-7123937D01*
X2080006Y-7128510D01*
X2093722Y-7128510D01*
X2116327Y-7123937D01*
X2130043Y-7114794D01*
X2134615Y-7101078D01*
X2134615Y-7092187D01*
X3408172Y-709168D02*
G01*
X3403854Y-700023D01*
X3394709Y-691134D01*
X3385565Y-686562D01*
X3367277Y-686562D01*
X3358388Y-691134D01*
X3349243Y-700023D01*
X3344672Y-709168D01*
X3340100Y-722884D01*
X3340100Y-745489D01*
X3344672Y-759205D01*
X3349243Y-768350D01*
X3358388Y-777494D01*
X3367277Y-782065D01*
X3385565Y-782065D01*
X3394709Y-777494D01*
X3403854Y-768350D01*
X3408172Y-759205D01*
X3461004Y-718312D02*
G01*
X3451859Y-722884D01*
X3442715Y-732028D01*
X3438397Y-745489D01*
X3438397Y-754634D01*
X3442715Y-768350D01*
X3451859Y-777494D01*
X3461004Y-782065D01*
X3474720Y-782065D01*
X3483609Y-777494D01*
X3492754Y-768350D01*
X3497325Y-754634D01*
X3497325Y-745489D01*
X3492754Y-732028D01*
X3483609Y-722884D01*
X3474720Y-718312D01*
X3461004Y-718312D01*
X3527297Y-686562D02*
G01*
X3527297Y-782065D01*
X3557270Y-686562D02*
G01*
X3557270Y-782065D01*
D11*
G75*
G01*
X1310310Y-7022211D02*
G03*
X1310284Y-7022643I-10001J372D01*
G75*
G01*
X1310310Y-7022211D02*
G03*
X1310284Y-7022643I-10001J372D01*
D12*
G75*
G01*
X545109Y-6130011D02*
G02*
X1715491Y-6130011I585191J-231688D01*
G75*
G01*
X1715491Y-6595389D02*
G02*
X545109Y-6595389I-585191J231688D01*
D11*
G75*
G01*
X1310312Y-3129229D02*
G03*
X1310287Y-3129661I-10000J371D01*
G75*
G01*
X1310312Y-3129229D02*
G03*
X1310287Y-3129661I-10000J371D01*
D12*
G75*
G01*
X545112Y-2237029D02*
G02*
X1715493Y-2237029I585191J-231688D01*
G75*
G01*
X1715493Y-2702408D02*
G02*
X545112Y-2702408I-585190J231689D01*
D11*
G75*
G01*
X1310310Y-5075725D02*
G03*
X1310284Y-5076157I-10001J371D01*
G75*
G01*
X1310310Y-5075725D02*
G03*
X1310284Y-5076157I-10001J371D01*
D12*
G75*
G01*
X545109Y-4183525D02*
G02*
X1715491Y-4183525I585191J-231688D01*
G75*
G01*
X1715491Y-4648904D02*
G02*
X545109Y-4648904I-585191J231689D01*
D13*
X2812491Y-1959990D02*
G01*
X3387496Y-1959990D01*
X3387496Y-2949981D01*
X2812491Y-2949981D01*
X2812491Y-1959990D01*
G36*
X292100Y-838200D02*
G01*
X1092098Y-838200D01*
X1092098Y-863193D01*
X292100Y-863193D01*
G37*
G36*
X1289100Y-838403D02*
G01*
X2089099Y-838403D01*
X2089099Y-863396D01*
X1289100Y-863396D01*
G37*
G36*
X2311400Y-838200D02*
G01*
X3111398Y-838200D01*
X3111398Y-863193D01*
X2311400Y-863193D01*
G37*
G36*
X3302000Y-850900D02*
G01*
X3619500Y-850900D01*
X3619500Y-875893D01*
X3302000Y-875893D01*
G37*
M02*
