G04 Layer: BottomLayer*
G04 EasyEDA v6.5.42, 2024-04-22 14:16:48*
G04 7752da08fb664a89a939598d6395460c,c115876feeed43bc8c79c948ea027e3a,10*
G04 Gerber Generator version 0.2*
G04 Scale: 100 percent, Rotated: No, Reflected: No *
G04 Dimensions in millimeters *
G04 leading zeros omitted , absolute positions ,4 integer and 5 decimal *
%FSLAX45Y45*%
%MOMM*%

%ADD10C,0.4000*%
%ADD11C,1.0000*%
%ADD12C,4.0160*%
%ADD13C,1.8000*%
%ADD14C,1.9000*%

%LPD*%
D10*
X1237741Y-4271263D02*
G01*
X1701800Y-4127500D01*
X2235200Y-4127500D01*
X2260600Y-1790700D01*
X1834895Y-1250950D01*
X960374Y-4466336D02*
G01*
X960374Y-4686300D01*
X190500Y-4686300D01*
X190500Y-977900D01*
X1335024Y-977900D01*
X1335024Y-1250950D01*
D11*
X3100070Y-2454910D02*
G01*
X3473958Y-2456434D01*
X3746500Y-2032000D01*
X3276600Y-1524000D01*
X3335020Y-1250950D01*
D10*
X1300225Y-4466336D02*
G01*
X1300225Y-4699000D01*
X2374900Y-4699000D01*
X2425700Y-1574800D01*
X2085086Y-1250950D01*
X1022858Y-4271263D02*
G01*
X1022858Y-3987800D01*
X2082800Y-3937000D01*
X2032000Y-1803400D01*
X1587500Y-1574800D01*
X1584959Y-1250950D01*
D12*
G01*
X1755292Y-6362700D03*
G01*
X505307Y-6362700D03*
D13*
G01*
X960297Y-6412712D03*
G01*
X1300302Y-6412712D03*
G01*
X1022807Y-6217691D03*
G01*
X1237792Y-6217691D03*
D12*
G01*
X1755292Y-2469718D03*
G01*
X505307Y-2469718D03*
D13*
G01*
X960297Y-2519730D03*
G01*
X1300302Y-2519730D03*
G01*
X1022807Y-2324709D03*
G01*
X1237792Y-2324709D03*
D12*
G01*
X1755292Y-4416221D03*
G01*
X505307Y-4416221D03*
D13*
G01*
X960297Y-4466234D03*
G01*
X1300302Y-4466234D03*
G01*
X1022807Y-4271213D03*
G01*
X1237792Y-4271213D03*
D14*
G01*
X3585006Y-1251000D03*
G01*
X3334994Y-1251000D03*
G01*
X2585008Y-1251000D03*
G01*
X2334996Y-1251000D03*
G01*
X2085009Y-1251000D03*
G01*
X1834997Y-1251000D03*
G01*
X1585010Y-1251000D03*
G01*
X1334998Y-1251000D03*
G01*
X1085011Y-1251000D03*
G01*
X834999Y-1251000D03*
G01*
X585012Y-1251000D03*
G01*
X335000Y-1251000D03*
G01*
X3099993Y-2704998D03*
G01*
X3099993Y-2454986D03*
G01*
X3099993Y-2204999D03*
G01*
X3085007Y-1251000D03*
G01*
X2834995Y-1251000D03*
M02*
